<svg width="267" height="271" viewBox="0 0 267 271" fill="none" xmlns="http://www.w3.org/2000/svg">
<path d="M53.3256 113.1L50.5415 102.918H51.7943L53.9221 111.21H54.0216L56.1892 102.918H57.5812L59.7488 111.21H59.8483L61.9761 102.918H63.229L60.4449 113.1H59.1721L56.925 104.986H56.8454L54.5983 113.1H53.3256ZM66.9974 113.259C66.308 113.259 65.7032 113.095 65.1828 112.767C64.6657 112.438 64.2614 111.979 63.9697 111.389C63.6814 110.799 63.5372 110.11 63.5372 109.321C63.5372 108.526 63.6814 107.831 63.9697 107.238C64.2614 106.645 64.6657 106.184 65.1828 105.856C65.7032 105.528 66.308 105.364 66.9974 105.364C67.6868 105.364 68.29 105.528 68.8071 105.856C69.3274 106.184 69.7318 106.645 70.0202 107.238C70.3118 107.831 70.4577 108.526 70.4577 109.321C70.4577 110.11 70.3118 110.799 70.0202 111.389C69.7318 111.979 69.3274 112.438 68.8071 112.767C68.29 113.095 67.6868 113.259 66.9974 113.259ZM66.9974 112.205C67.5211 112.205 67.952 112.07 68.29 111.802C68.6281 111.534 68.8783 111.181 69.0407 110.743C69.2032 110.306 69.2844 109.832 69.2844 109.321C69.2844 108.811 69.2032 108.335 69.0407 107.894C68.8783 107.454 68.6281 107.097 68.29 106.825C67.952 106.554 67.5211 106.418 66.9974 106.418C66.4738 106.418 66.0429 106.554 65.7048 106.825C65.3667 107.097 65.1165 107.454 64.9541 107.894C64.7917 108.335 64.7105 108.811 64.7105 109.321C64.7105 109.832 64.7917 110.306 64.9541 110.743C65.1165 111.181 65.3667 111.534 65.7048 111.802C66.0429 112.07 66.4738 112.205 66.9974 112.205ZM72.2487 113.1V105.463H73.3822V106.617H73.4617C73.6009 106.239 73.8528 105.932 74.2174 105.697C74.582 105.462 74.993 105.344 75.4504 105.344C75.5365 105.344 75.6443 105.346 75.7735 105.349C75.9028 105.352 76.0006 105.357 76.0669 105.364V106.557C76.0271 106.547 75.9359 106.532 75.7934 106.512C75.6542 106.489 75.5067 106.477 75.3509 106.477C74.9797 106.477 74.6483 106.555 74.3566 106.711C74.0683 106.864 73.8396 107.076 73.6705 107.347C73.5048 107.616 73.422 107.923 73.422 108.267V113.1H72.2487ZM78.6309 102.918V113.1H77.4577V102.918H78.6309ZM83.6634 113.259C83.0271 113.259 82.4653 113.098 81.9781 112.776C81.4909 112.452 81.1097 111.994 80.8346 111.404C80.5595 110.811 80.422 110.11 80.422 109.301C80.422 108.499 80.5595 107.803 80.8346 107.213C81.1097 106.623 81.4925 106.168 81.983 105.846C82.4736 105.525 83.0403 105.364 83.6833 105.364C84.1805 105.364 84.5732 105.447 84.8616 105.612C85.1533 105.775 85.3753 105.96 85.5278 106.169C85.6836 106.375 85.8045 106.544 85.8907 106.676H85.9901V102.918H87.1634V113.1H86.0299V111.926H85.8907C85.8045 112.066 85.6819 112.241 85.5228 112.453C85.3637 112.662 85.1367 112.849 84.8417 113.015C84.5467 113.177 84.154 113.259 83.6634 113.259ZM83.8225 112.205C84.2932 112.205 84.6909 112.082 85.0157 111.837C85.3405 111.588 85.5874 111.245 85.7565 110.808C85.9255 110.367 86.01 109.858 86.01 109.281C86.01 108.711 85.9272 108.213 85.7615 107.785C85.5957 107.354 85.3505 107.019 85.0257 106.781C84.7008 106.539 84.2998 106.418 83.8225 106.418C83.3254 106.418 82.9111 106.545 82.5796 106.801C82.2515 107.052 82.0046 107.396 81.8389 107.83C81.6765 108.261 81.5953 108.744 81.5953 109.281C81.5953 109.825 81.6781 110.319 81.8438 110.763C82.0129 111.204 82.2615 111.555 82.5896 111.817C82.921 112.075 83.332 112.205 83.8225 112.205ZM90.5093 102.918V103.813C90.5093 104.084 90.4596 104.374 90.3602 104.683C90.2641 104.988 90.1215 105.284 89.9326 105.573C89.747 105.858 89.5216 106.106 89.2565 106.318L88.6201 105.801C88.8289 105.503 89.0096 105.193 89.162 104.872C89.3178 104.547 89.3957 104.2 89.3957 103.833V102.918H90.5093ZM96.3882 107.173L95.3343 107.472C95.268 107.296 95.1702 107.125 95.0409 106.96C94.915 106.791 94.7426 106.651 94.5239 106.542C94.3051 106.433 94.0251 106.378 93.6837 106.378C93.2164 106.378 92.8269 106.486 92.5154 106.701C92.2071 106.913 92.053 107.183 92.053 107.512C92.053 107.803 92.1591 108.034 92.3712 108.203C92.5833 108.372 92.9147 108.512 93.3655 108.625L94.499 108.904C95.1818 109.069 95.6905 109.323 96.0253 109.664C96.3601 110.002 96.5274 110.438 96.5274 110.972C96.5274 111.409 96.4015 111.8 96.1496 112.145C95.901 112.49 95.553 112.762 95.1056 112.96C94.6581 113.159 94.1378 113.259 93.5445 113.259C92.7656 113.259 92.1209 113.09 91.6105 112.752C91.1001 112.414 90.777 111.92 90.6411 111.27L91.7547 110.992C91.8608 111.403 92.0613 111.711 92.3563 111.916C92.6546 112.122 93.044 112.225 93.5246 112.225C94.0715 112.225 94.5057 112.109 94.8271 111.877C95.152 111.641 95.3144 111.36 95.3144 111.031C95.3144 110.766 95.2216 110.544 95.036 110.365C94.8503 110.183 94.5653 110.047 94.1808 109.958L92.9081 109.659C92.2088 109.494 91.695 109.237 91.3669 108.889C91.0421 108.537 90.8797 108.098 90.8797 107.571C90.8797 107.14 91.0007 106.759 91.2426 106.428C91.4879 106.096 91.821 105.836 92.2419 105.647C92.6662 105.458 93.1468 105.364 93.6837 105.364C94.4394 105.364 95.0326 105.53 95.4635 105.861C95.8977 106.192 96.2059 106.63 96.3882 107.173ZM102.39 102.918H103.862L107.322 111.369H107.441L110.902 102.918H112.373V113.1H111.22V105.364H111.12L107.938 113.1H106.825L103.643 105.364H103.544V113.1H102.39V102.918ZM117.788 113.259C117.099 113.259 116.494 113.095 115.974 112.767C115.457 112.438 115.052 111.979 114.761 111.389C114.472 110.799 114.328 110.11 114.328 109.321C114.328 108.526 114.472 107.831 114.761 107.238C115.052 106.645 115.457 106.184 115.974 105.856C116.494 105.528 117.099 105.364 117.788 105.364C118.478 105.364 119.081 105.528 119.598 105.856C120.118 106.184 120.523 106.645 120.811 107.238C121.103 107.831 121.249 108.526 121.249 109.321C121.249 110.11 121.103 110.799 120.811 111.389C120.523 111.979 120.118 112.438 119.598 112.767C119.081 113.095 118.478 113.259 117.788 113.259ZM117.788 112.205C118.312 112.205 118.743 112.07 119.081 111.802C119.419 111.534 119.669 111.181 119.832 110.743C119.994 110.306 120.075 109.832 120.075 109.321C120.075 108.811 119.994 108.335 119.832 107.894C119.669 107.454 119.419 107.097 119.081 106.825C118.743 106.554 118.312 106.418 117.788 106.418C117.265 106.418 116.834 106.554 116.496 106.825C116.158 107.097 115.908 107.454 115.745 107.894C115.583 108.335 115.502 108.811 115.502 109.321C115.502 109.832 115.583 110.306 115.745 110.743C115.908 111.181 116.158 111.534 116.496 111.802C116.834 112.07 117.265 112.205 117.788 112.205ZM128.449 107.173L127.395 107.472C127.329 107.296 127.231 107.125 127.101 106.96C126.976 106.791 126.803 106.651 126.584 106.542C126.366 106.433 126.086 106.378 125.744 106.378C125.277 106.378 124.887 106.486 124.576 106.701C124.268 106.913 124.114 107.183 124.114 107.512C124.114 107.803 124.22 108.034 124.432 108.203C124.644 108.372 124.975 108.512 125.426 108.625L126.56 108.904C127.242 109.069 127.751 109.323 128.086 109.664C128.421 110.002 128.588 110.438 128.588 110.972C128.588 111.409 128.462 111.8 128.21 112.145C127.962 112.49 127.614 112.762 127.166 112.96C126.719 113.159 126.198 113.259 125.605 113.259C124.826 113.259 124.181 113.09 123.671 112.752C123.161 112.414 122.838 111.92 122.702 111.27L123.815 110.992C123.921 111.403 124.122 111.711 124.417 111.916C124.715 112.122 125.105 112.225 125.585 112.225C126.132 112.225 126.566 112.109 126.888 111.877C127.213 111.641 127.375 111.36 127.375 111.031C127.375 110.766 127.282 110.544 127.097 110.365C126.911 110.183 126.626 110.047 126.241 109.958L124.969 109.659C124.269 109.494 123.756 109.237 123.427 108.889C123.103 108.537 122.94 108.098 122.94 107.571C122.94 107.14 123.061 106.759 123.303 106.428C123.548 106.096 123.882 105.836 124.302 105.647C124.727 105.458 125.207 105.364 125.744 105.364C126.5 105.364 127.093 105.53 127.524 105.861C127.958 106.192 128.266 106.63 128.449 107.173ZM133.675 105.463V106.458H129.718V105.463H133.675ZM130.871 103.634H132.044V110.912C132.044 111.244 132.093 111.492 132.189 111.658C132.288 111.82 132.414 111.93 132.566 111.986C132.722 112.039 132.886 112.066 133.059 112.066C133.188 112.066 133.294 112.059 133.377 112.046C133.46 112.029 133.526 112.016 133.576 112.006L133.814 113.06C133.735 113.09 133.624 113.119 133.481 113.149C133.339 113.182 133.158 113.199 132.939 113.199C132.608 113.199 132.283 113.128 131.965 112.985C131.65 112.843 131.388 112.626 131.179 112.334C130.974 112.042 130.871 111.674 130.871 111.23V103.634ZM139.537 113.1V102.918H142.977C143.776 102.918 144.429 103.062 144.936 103.35C145.446 103.635 145.824 104.021 146.069 104.509C146.315 104.996 146.437 105.539 146.437 106.139C146.437 106.739 146.315 107.285 146.069 107.775C145.827 108.266 145.453 108.657 144.946 108.948C144.439 109.237 143.789 109.381 142.997 109.381H140.531V108.287H142.957C143.504 108.287 143.943 108.193 144.275 108.004C144.606 107.815 144.846 107.56 144.995 107.238C145.148 106.913 145.224 106.547 145.224 106.139C145.224 105.732 145.148 105.367 144.995 105.046C144.846 104.724 144.604 104.472 144.27 104.29C143.935 104.104 143.491 104.012 142.937 104.012H140.77V113.1H139.537ZM148.264 113.1V105.463H149.398V106.617H149.477C149.617 106.239 149.868 105.932 150.233 105.697C150.598 105.462 151.009 105.344 151.466 105.344C151.552 105.344 151.66 105.346 151.789 105.349C151.918 105.352 152.016 105.357 152.082 105.364V106.557C152.043 106.547 151.952 106.532 151.809 106.512C151.67 106.489 151.522 106.477 151.367 106.477C150.995 106.477 150.664 106.555 150.372 106.711C150.084 106.864 149.855 107.076 149.686 107.347C149.52 107.616 149.438 107.923 149.438 108.267V113.1H148.264ZM156.443 113.259C155.707 113.259 155.072 113.096 154.538 112.771C154.008 112.443 153.599 111.986 153.31 111.399C153.025 110.809 152.883 110.123 152.883 109.341C152.883 108.559 153.025 107.869 153.31 107.273C153.599 106.673 154 106.206 154.514 105.871C155.031 105.533 155.634 105.364 156.323 105.364C156.721 105.364 157.114 105.43 157.502 105.563C157.889 105.695 158.242 105.911 158.56 106.209C158.879 106.504 159.132 106.895 159.321 107.382C159.51 107.869 159.604 108.469 159.604 109.182V109.679H153.718V108.665H158.411C158.411 108.234 158.325 107.85 158.153 107.512C157.984 107.173 157.742 106.907 157.427 106.711C157.115 106.516 156.747 106.418 156.323 106.418C155.856 106.418 155.452 106.534 155.11 106.766C154.772 106.994 154.512 107.293 154.33 107.661C154.147 108.029 154.056 108.423 154.056 108.844V109.52C154.056 110.097 154.156 110.586 154.354 110.987C154.557 111.384 154.837 111.688 155.195 111.896C155.553 112.102 155.969 112.205 156.443 112.205C156.751 112.205 157.029 112.162 157.278 112.075C157.53 111.986 157.747 111.853 157.929 111.678C158.111 111.499 158.252 111.277 158.352 111.012L159.485 111.33C159.366 111.714 159.165 112.052 158.884 112.344C158.602 112.632 158.254 112.858 157.84 113.02C157.425 113.179 156.96 113.259 156.443 113.259ZM166.798 107.173L165.744 107.472C165.678 107.296 165.58 107.125 165.451 106.96C165.325 106.791 165.153 106.651 164.934 106.542C164.715 106.433 164.435 106.378 164.094 106.378C163.627 106.378 163.237 106.486 162.926 106.701C162.617 106.913 162.463 107.183 162.463 107.512C162.463 107.803 162.569 108.034 162.781 108.203C162.993 108.372 163.325 108.512 163.776 108.625L164.909 108.904C165.592 109.069 166.101 109.323 166.435 109.664C166.77 110.002 166.938 110.438 166.938 110.972C166.938 111.409 166.812 111.8 166.56 112.145C166.311 112.49 165.963 112.762 165.516 112.96C165.068 113.159 164.548 113.259 163.955 113.259C163.176 113.259 162.531 113.09 162.021 112.752C161.51 112.414 161.187 111.92 161.051 111.27L162.165 110.992C162.271 111.403 162.471 111.711 162.766 111.916C163.065 112.122 163.454 112.225 163.935 112.225C164.482 112.225 164.916 112.109 165.237 111.877C165.562 111.641 165.725 111.36 165.725 111.031C165.725 110.766 165.632 110.544 165.446 110.365C165.261 110.183 164.975 110.047 164.591 109.958L163.318 109.659C162.619 109.494 162.105 109.237 161.777 108.889C161.452 108.537 161.29 108.098 161.29 107.571C161.29 107.14 161.411 106.759 161.653 106.428C161.898 106.096 162.231 105.836 162.652 105.647C163.076 105.458 163.557 105.364 164.094 105.364C164.85 105.364 165.443 105.53 165.874 105.861C166.308 106.192 166.616 106.63 166.798 107.173ZM172.025 105.463V106.458H168.067V105.463H172.025ZM169.221 103.634H170.394V110.912C170.394 111.244 170.442 111.492 170.538 111.658C170.638 111.82 170.764 111.93 170.916 111.986C171.072 112.039 171.236 112.066 171.408 112.066C171.538 112.066 171.644 112.059 171.726 112.046C171.809 112.029 171.876 112.016 171.925 112.006L172.164 113.06C172.084 113.09 171.973 113.119 171.831 113.149C171.688 113.182 171.508 113.199 171.289 113.199C170.958 113.199 170.633 113.128 170.315 112.985C170 112.843 169.738 112.626 169.529 112.334C169.324 112.042 169.221 111.674 169.221 111.23V103.634ZM173.79 113.1V105.463H174.963V113.1H173.79ZM174.386 104.191C174.158 104.191 173.96 104.113 173.795 103.957C173.632 103.801 173.551 103.614 173.551 103.395C173.551 103.176 173.632 102.989 173.795 102.833C173.96 102.677 174.158 102.6 174.386 102.6C174.615 102.6 174.811 102.677 174.973 102.833C175.139 102.989 175.222 103.176 175.222 103.395C175.222 103.614 175.139 103.801 174.973 103.957C174.811 104.113 174.615 104.191 174.386 104.191ZM180.194 116.122C179.628 116.122 179.14 116.049 178.733 115.904C178.325 115.761 177.985 115.572 177.714 115.337C177.445 115.105 177.231 114.856 177.072 114.591L178.007 113.935C178.113 114.074 178.247 114.233 178.41 114.412C178.572 114.594 178.794 114.752 179.076 114.884C179.361 115.02 179.734 115.088 180.194 115.088C180.811 115.088 181.32 114.939 181.721 114.641C182.122 114.343 182.322 113.875 182.322 113.239V111.688H182.223C182.137 111.827 182.014 111.999 181.855 112.205C181.699 112.407 181.474 112.588 181.179 112.747C180.887 112.902 180.493 112.98 179.995 112.98C179.379 112.98 178.825 112.834 178.335 112.543C177.848 112.251 177.462 111.827 177.177 111.27C176.895 110.713 176.754 110.037 176.754 109.242C176.754 108.459 176.892 107.778 177.167 107.198C177.442 106.615 177.825 106.164 178.315 105.846C178.806 105.525 179.372 105.364 180.015 105.364C180.513 105.364 180.907 105.447 181.199 105.612C181.494 105.775 181.719 105.96 181.875 106.169C182.034 106.375 182.156 106.544 182.243 106.676H182.362V105.463H183.495V113.318C183.495 113.975 183.346 114.508 183.048 114.919C182.753 115.334 182.355 115.637 181.855 115.829C181.358 116.025 180.804 116.122 180.194 116.122ZM180.155 111.926C180.625 111.926 181.023 111.819 181.348 111.603C181.673 111.388 181.919 111.078 182.089 110.673C182.258 110.269 182.342 109.785 182.342 109.222C182.342 108.672 182.259 108.186 182.093 107.765C181.928 107.344 181.682 107.014 181.358 106.776C181.033 106.537 180.632 106.418 180.155 106.418C179.657 106.418 179.243 106.544 178.912 106.796C178.584 107.048 178.337 107.386 178.171 107.81C178.008 108.234 177.927 108.705 177.927 109.222C177.927 109.752 178.01 110.221 178.176 110.629C178.345 111.033 178.593 111.351 178.922 111.583C179.253 111.812 179.664 111.926 180.155 111.926ZM185.643 113.1V105.463H186.816V113.1H185.643ZM186.24 104.191C186.011 104.191 185.814 104.113 185.648 103.957C185.486 103.801 185.405 103.614 185.405 103.395C185.405 103.176 185.486 102.989 185.648 102.833C185.814 102.677 186.011 102.6 186.24 102.6C186.468 102.6 186.664 102.677 186.826 102.833C186.992 102.989 187.075 103.176 187.075 103.395C187.075 103.614 186.992 103.801 186.826 103.957C186.664 104.113 186.468 104.191 186.24 104.191ZM192.068 113.259C191.378 113.259 190.773 113.095 190.253 112.767C189.736 112.438 189.332 111.979 189.04 111.389C188.752 110.799 188.608 110.11 188.608 109.321C188.608 108.526 188.752 107.831 189.04 107.238C189.332 106.645 189.736 106.184 190.253 105.856C190.773 105.528 191.378 105.364 192.068 105.364C192.757 105.364 193.36 105.528 193.877 105.856C194.398 106.184 194.802 106.645 195.09 107.238C195.382 107.831 195.528 108.526 195.528 109.321C195.528 110.11 195.382 110.799 195.09 111.389C194.802 111.979 194.398 112.438 193.877 112.767C193.36 113.095 192.757 113.259 192.068 113.259ZM192.068 112.205C192.591 112.205 193.022 112.07 193.36 111.802C193.698 111.534 193.949 111.181 194.111 110.743C194.273 110.306 194.355 109.832 194.355 109.321C194.355 108.811 194.273 108.335 194.111 107.894C193.949 107.454 193.698 107.097 193.36 106.825C193.022 106.554 192.591 106.418 192.068 106.418C191.544 106.418 191.113 106.554 190.775 106.825C190.437 107.097 190.187 107.454 190.024 107.894C189.862 108.335 189.781 108.811 189.781 109.321C189.781 109.832 189.862 110.306 190.024 110.743C190.187 111.181 190.437 111.534 190.775 111.802C191.113 112.07 191.544 112.205 192.068 112.205ZM202.131 109.977V105.463H203.305V113.1H202.131V111.807H202.052C201.873 112.195 201.595 112.525 201.217 112.796C200.839 113.065 200.362 113.199 199.785 113.199C199.308 113.199 198.883 113.095 198.512 112.886C198.141 112.674 197.849 112.356 197.637 111.931C197.425 111.504 197.319 110.965 197.319 110.316V105.463H198.492V110.236C198.492 110.793 198.648 111.237 198.96 111.568C199.274 111.9 199.676 112.066 200.163 112.066C200.454 112.066 200.751 111.991 201.053 111.842C201.358 111.693 201.613 111.464 201.818 111.156C202.027 110.847 202.131 110.455 202.131 109.977ZM210.863 107.173L209.809 107.472C209.743 107.296 209.645 107.125 209.516 106.96C209.39 106.791 209.217 106.651 208.998 106.542C208.78 106.433 208.5 106.378 208.158 106.378C207.691 106.378 207.302 106.486 206.99 106.701C206.682 106.913 206.528 107.183 206.528 107.512C206.528 107.803 206.634 108.034 206.846 108.203C207.058 108.372 207.389 108.512 207.84 108.625L208.974 108.904C209.656 109.069 210.165 109.323 210.5 109.664C210.835 110.002 211.002 110.438 211.002 110.972C211.002 111.409 210.876 111.8 210.624 112.145C210.376 112.49 210.028 112.762 209.58 112.96C209.133 113.159 208.612 113.259 208.019 113.259C207.24 113.259 206.596 113.09 206.085 112.752C205.575 112.414 205.252 111.92 205.116 111.27L206.229 110.992C206.335 111.403 206.536 111.711 206.831 111.916C207.129 112.122 207.519 112.225 207.999 112.225C208.546 112.225 208.98 112.109 209.302 111.877C209.627 111.641 209.789 111.36 209.789 111.031C209.789 110.766 209.696 110.544 209.511 110.365C209.325 110.183 209.04 110.047 208.655 109.958L207.383 109.659C206.683 109.494 206.17 109.237 205.842 108.889C205.517 108.537 205.354 108.098 205.354 107.571C205.354 107.14 205.475 106.759 205.717 106.428C205.963 106.096 206.296 105.836 206.717 105.647C207.141 105.458 207.621 105.364 208.158 105.364C208.914 105.364 209.507 105.53 209.938 105.861C210.372 106.192 210.681 106.63 210.863 107.173Z" fill="#242424"/>
<path d="M83.8984 141.1H80.2734L85.7969 125.1H90.1563L95.6719 141.1H92.0469L88.0391 128.756H87.9141L83.8984 141.1ZM83.6719 134.811H92.2344V137.451H83.6719V134.811ZM99.5879 141.1L95.0098 125.1H98.7051L101.354 136.217H101.486L104.408 125.1H107.572L110.486 136.24H110.627L113.275 125.1H116.971L112.393 141.1H109.096L106.049 130.639H105.924L102.885 141.1H99.5879ZM119.928 141.1H116.303L121.826 125.1H126.186L131.701 141.1H128.076L124.068 128.756H123.943L119.928 141.1ZM119.701 134.811H128.264V137.451H119.701V134.811ZM133.627 141.1V125.1H139.939C141.148 125.1 142.179 125.316 143.033 125.748C143.893 126.175 144.546 126.782 144.994 127.568C145.447 128.35 145.674 129.269 145.674 130.326C145.674 131.389 145.445 132.303 144.986 133.068C144.528 133.829 143.864 134.412 142.994 134.818C142.13 135.225 141.083 135.428 139.854 135.428H135.627V132.709H139.307C139.952 132.709 140.489 132.62 140.916 132.443C141.343 132.266 141.661 132.001 141.869 131.646C142.083 131.292 142.189 130.852 142.189 130.326C142.189 129.795 142.083 129.347 141.869 128.982C141.661 128.618 141.34 128.342 140.908 128.154C140.481 127.962 139.942 127.865 139.291 127.865H137.01V141.1H133.627ZM142.268 133.818L146.244 141.1H142.51L138.619 133.818H142.268ZM153.736 141.1H148.064V125.1H153.783C155.393 125.1 156.778 125.42 157.939 126.061C159.101 126.696 159.994 127.61 160.619 128.803C161.249 129.995 161.564 131.423 161.564 133.084C161.564 134.751 161.249 136.183 160.619 137.381C159.994 138.579 159.096 139.498 157.924 140.139C156.757 140.779 155.361 141.1 153.736 141.1ZM151.447 138.201H153.596C154.596 138.201 155.437 138.024 156.119 137.67C156.807 137.311 157.322 136.756 157.666 136.006C158.015 135.251 158.189 134.277 158.189 133.084C158.189 131.902 158.015 130.936 157.666 130.186C157.322 129.436 156.809 128.883 156.127 128.529C155.445 128.175 154.604 127.998 153.604 127.998H151.447V138.201ZM172.75 129.701C172.688 129.071 172.419 128.581 171.945 128.232C171.471 127.883 170.828 127.709 170.016 127.709C169.464 127.709 168.997 127.787 168.617 127.943C168.237 128.094 167.945 128.305 167.742 128.576C167.544 128.847 167.445 129.154 167.445 129.498C167.435 129.785 167.495 130.035 167.625 130.248C167.76 130.462 167.945 130.646 168.18 130.803C168.414 130.954 168.685 131.087 168.992 131.201C169.299 131.311 169.628 131.404 169.977 131.482L171.414 131.826C172.112 131.982 172.753 132.191 173.336 132.451C173.919 132.712 174.424 133.032 174.852 133.412C175.279 133.792 175.609 134.24 175.844 134.756C176.083 135.271 176.206 135.863 176.211 136.529C176.206 137.508 175.956 138.357 175.461 139.076C174.971 139.79 174.263 140.344 173.336 140.74C172.414 141.131 171.302 141.326 170 141.326C168.708 141.326 167.583 141.128 166.625 140.732C165.672 140.337 164.927 139.751 164.391 138.975C163.859 138.193 163.581 137.227 163.555 136.076H166.828C166.865 136.613 167.018 137.061 167.289 137.42C167.565 137.774 167.932 138.042 168.391 138.225C168.854 138.402 169.378 138.49 169.961 138.49C170.534 138.49 171.031 138.407 171.453 138.24C171.88 138.074 172.211 137.842 172.445 137.545C172.68 137.248 172.797 136.907 172.797 136.521C172.797 136.162 172.69 135.86 172.477 135.615C172.268 135.37 171.961 135.162 171.555 134.99C171.154 134.818 170.661 134.662 170.078 134.521L168.336 134.084C166.987 133.756 165.922 133.243 165.141 132.545C164.359 131.847 163.971 130.907 163.977 129.725C163.971 128.756 164.229 127.91 164.75 127.186C165.276 126.462 165.997 125.896 166.914 125.49C167.831 125.084 168.872 124.881 170.039 124.881C171.227 124.881 172.263 125.084 173.148 125.49C174.039 125.896 174.732 126.462 175.227 127.186C175.721 127.91 175.977 128.748 175.992 129.701H172.75ZM71.2891 166.334C70.1849 166.334 69.2318 166.136 68.4297 165.74C67.6276 165.344 67.0104 164.808 66.5781 164.131C66.151 163.449 65.9375 162.688 65.9375 161.85C65.9375 161.225 66.0625 160.67 66.3125 160.186C66.5625 159.701 66.9115 159.256 67.3594 158.85C67.8073 158.438 68.3281 158.029 68.9219 157.623L72.0234 155.584C72.4245 155.329 72.7188 155.061 72.9063 154.779C73.0938 154.493 73.1875 154.183 73.1875 153.85C73.1875 153.532 73.0599 153.238 72.8047 152.967C72.5495 152.696 72.1875 152.563 71.7188 152.568C71.4063 152.568 71.1354 152.639 70.9063 152.779C70.6771 152.915 70.4974 153.094 70.3672 153.318C70.2422 153.537 70.1797 153.782 70.1797 154.053C70.1797 154.386 70.2734 154.725 70.4609 155.068C70.6484 155.412 70.8984 155.777 71.2109 156.162C71.5234 156.542 71.8646 156.954 72.2344 157.396L79.8203 166.1H76.3516L70.0234 159.053C69.6068 158.579 69.1901 158.084 68.7734 157.568C68.362 157.048 68.0182 156.495 67.7422 155.912C67.4661 155.324 67.3281 154.686 67.3281 153.998C67.3281 153.222 67.5078 152.524 67.8672 151.904C68.2318 151.285 68.7422 150.795 69.3984 150.436C70.0547 150.071 70.8203 149.889 71.6953 149.889C72.5495 149.889 73.2865 150.063 73.9062 150.412C74.5313 150.756 75.0104 151.214 75.3438 151.787C75.6823 152.355 75.8516 152.98 75.8516 153.662C75.8516 154.417 75.6641 155.102 75.2891 155.717C74.9193 156.326 74.3984 156.873 73.7266 157.357L70.4609 159.709C70.0182 160.032 69.6901 160.363 69.4766 160.701C69.2682 161.035 69.1641 161.355 69.1641 161.662C69.1641 162.042 69.2578 162.383 69.4453 162.686C69.6328 162.988 69.8984 163.227 70.2422 163.404C70.5859 163.576 70.9896 163.662 71.4531 163.662C72.0156 163.662 72.5703 163.535 73.1172 163.279C73.6693 163.019 74.1693 162.652 74.6172 162.178C75.0703 161.699 75.4323 161.131 75.7031 160.475C75.974 159.818 76.1094 159.092 76.1094 158.295H78.8672C78.8672 159.274 78.7604 160.157 78.5469 160.943C78.3333 161.725 78.0365 162.407 77.6563 162.99C77.276 163.568 76.8411 164.042 76.3516 164.412C76.1953 164.511 76.0443 164.605 75.8984 164.693C75.7526 164.782 75.6016 164.876 75.4453 164.975C74.8516 165.454 74.1875 165.8 73.4531 166.014C72.724 166.227 72.0026 166.334 71.2891 166.334Z" fill="#242424"/>
<path d="M86.3613 166.1V150.1H89.7441V156.701H96.6113V150.1H99.9863V166.1H96.6113V159.49H89.7441V166.1H86.3613ZM117.479 158.1C117.479 159.844 117.148 161.329 116.486 162.553C115.83 163.777 114.934 164.712 113.799 165.357C112.669 165.998 111.398 166.318 109.986 166.318C108.564 166.318 107.288 165.995 106.158 165.35C105.028 164.704 104.135 163.769 103.479 162.545C102.822 161.321 102.494 159.839 102.494 158.1C102.494 156.355 102.822 154.87 103.479 153.646C104.135 152.423 105.028 151.49 106.158 150.85C107.288 150.204 108.564 149.881 109.986 149.881C111.398 149.881 112.669 150.204 113.799 150.85C114.934 151.49 115.83 152.423 116.486 153.646C117.148 154.87 117.479 156.355 117.479 158.1ZM114.049 158.1C114.049 156.969 113.88 156.016 113.541 155.24C113.208 154.464 112.736 153.876 112.127 153.475C111.518 153.074 110.804 152.873 109.986 152.873C109.169 152.873 108.455 153.074 107.846 153.475C107.236 153.876 106.762 154.464 106.424 155.24C106.09 156.016 105.924 156.969 105.924 158.1C105.924 159.23 106.09 160.183 106.424 160.959C106.762 161.735 107.236 162.324 107.846 162.725C108.455 163.126 109.169 163.326 109.986 163.326C110.804 163.326 111.518 163.126 112.127 162.725C112.736 162.324 113.208 161.735 113.541 160.959C113.88 160.183 114.049 159.23 114.049 158.1ZM133.367 150.1V166.1H130.445L123.484 156.029H123.367V166.1H119.984V150.1H122.953L129.859 160.162H130V150.1H133.367ZM150.865 158.1C150.865 159.844 150.535 161.329 149.873 162.553C149.217 163.777 148.321 164.712 147.186 165.357C146.055 165.998 144.785 166.318 143.373 166.318C141.951 166.318 140.675 165.995 139.545 165.35C138.415 164.704 137.521 163.769 136.865 162.545C136.209 161.321 135.881 159.839 135.881 158.1C135.881 156.355 136.209 154.87 136.865 153.646C137.521 152.423 138.415 151.49 139.545 150.85C140.675 150.204 141.951 149.881 143.373 149.881C144.785 149.881 146.055 150.204 147.186 150.85C148.321 151.49 149.217 152.423 149.873 153.646C150.535 154.87 150.865 156.355 150.865 158.1ZM147.436 158.1C147.436 156.969 147.266 156.016 146.928 155.24C146.594 154.464 146.123 153.876 145.514 153.475C144.904 153.074 144.191 152.873 143.373 152.873C142.555 152.873 141.842 153.074 141.232 153.475C140.623 153.876 140.149 154.464 139.811 155.24C139.477 156.016 139.311 156.969 139.311 158.1C139.311 159.23 139.477 160.183 139.811 160.959C140.149 161.735 140.623 162.324 141.232 162.725C141.842 163.126 142.555 163.326 143.373 163.326C144.191 163.326 144.904 163.126 145.514 162.725C146.123 162.324 146.594 161.735 146.928 160.959C147.266 160.183 147.436 159.23 147.436 158.1ZM163.254 150.1H166.637V160.49C166.637 161.657 166.358 162.678 165.801 163.553C165.249 164.428 164.475 165.11 163.48 165.6C162.486 166.084 161.327 166.326 160.004 166.326C158.676 166.326 157.514 166.084 156.52 165.6C155.525 165.11 154.751 164.428 154.199 163.553C153.647 162.678 153.371 161.657 153.371 160.49V150.1H156.754V160.201C156.754 160.811 156.887 161.352 157.152 161.826C157.423 162.3 157.803 162.673 158.293 162.943C158.783 163.214 159.353 163.35 160.004 163.35C160.66 163.35 161.23 163.214 161.715 162.943C162.204 162.673 162.582 162.3 162.848 161.826C163.118 161.352 163.254 160.811 163.254 160.201V150.1ZM169.42 166.1V150.1H175.732C176.941 150.1 177.972 150.316 178.826 150.748C179.686 151.175 180.339 151.782 180.787 152.568C181.24 153.35 181.467 154.269 181.467 155.326C181.467 156.389 181.238 157.303 180.779 158.068C180.321 158.829 179.657 159.412 178.787 159.818C177.923 160.225 176.876 160.428 175.646 160.428H171.42V157.709H175.1C175.745 157.709 176.282 157.62 176.709 157.443C177.136 157.266 177.454 157.001 177.662 156.646C177.876 156.292 177.982 155.852 177.982 155.326C177.982 154.795 177.876 154.347 177.662 153.982C177.454 153.618 177.133 153.342 176.701 153.154C176.274 152.962 175.735 152.865 175.084 152.865H172.803V166.1H169.42ZM178.061 158.818L182.037 166.1H178.303L174.412 158.818H178.061ZM192.537 154.701C192.475 154.071 192.206 153.581 191.732 153.232C191.258 152.883 190.615 152.709 189.803 152.709C189.251 152.709 188.785 152.787 188.404 152.943C188.024 153.094 187.732 153.305 187.529 153.576C187.331 153.847 187.232 154.154 187.232 154.498C187.222 154.785 187.282 155.035 187.412 155.248C187.548 155.462 187.732 155.646 187.967 155.803C188.201 155.954 188.472 156.087 188.779 156.201C189.087 156.311 189.415 156.404 189.764 156.482L191.201 156.826C191.899 156.982 192.54 157.191 193.123 157.451C193.706 157.712 194.212 158.032 194.639 158.412C195.066 158.792 195.396 159.24 195.631 159.756C195.87 160.271 195.993 160.863 195.998 161.529C195.993 162.508 195.743 163.357 195.248 164.076C194.758 164.79 194.05 165.344 193.123 165.74C192.201 166.131 191.089 166.326 189.787 166.326C188.495 166.326 187.37 166.128 186.412 165.732C185.459 165.337 184.714 164.751 184.178 163.975C183.646 163.193 183.368 162.227 183.342 161.076H186.615C186.652 161.613 186.805 162.061 187.076 162.42C187.352 162.774 187.719 163.042 188.178 163.225C188.641 163.402 189.165 163.49 189.748 163.49C190.321 163.49 190.818 163.407 191.24 163.24C191.667 163.074 191.998 162.842 192.232 162.545C192.467 162.248 192.584 161.907 192.584 161.521C192.584 161.162 192.477 160.86 192.264 160.615C192.055 160.37 191.748 160.162 191.342 159.99C190.941 159.818 190.449 159.662 189.865 159.521L188.123 159.084C186.774 158.756 185.709 158.243 184.928 157.545C184.146 156.847 183.758 155.907 183.764 154.725C183.758 153.756 184.016 152.91 184.537 152.186C185.063 151.462 185.785 150.896 186.701 150.49C187.618 150.084 188.66 149.881 189.826 149.881C191.014 149.881 192.05 150.084 192.936 150.49C193.826 150.896 194.519 151.462 195.014 152.186C195.508 152.91 195.764 153.748 195.779 154.701H192.537Z" fill="#FF6A00"/>
<path d="M154.537 249.7C216.431 238.217 257.099 177.666 245.372 114.454C233.645 51.2429 173.964 9.30836 112.069 20.791C50.1752 32.2735 9.50659 92.8251 21.2336 156.037C32.9605 219.248 92.6423 261.183 154.537 249.7Z" stroke="url(#paint0_linear_11343_1904)" stroke-width="0.4" stroke-miterlimit="10"/>
<path d="M25.7522 82.8183C25.8121 81.5006 25.8421 80.138 25.9469 78.8054L26.3661 74.8074C26.6506 72.1121 26.9351 69.357 27.4742 66.6916L27.5341 66.3622C27.3544 67.7398 27.1298 69.0575 27.01 70.4351L26.6956 74.5229C26.5009 77.2181 26.3063 79.8535 26.3512 82.5488C26.3512 84.5403 26.1565 86.7115 25.8421 89.0174C25.6324 91.3683 25.2731 93.824 24.764 96.3545C27.3844 86.3371 29.9598 76.9636 30.5288 69.6714C31.1128 62.8883 32.2209 55.9405 33.9578 48.9777L33.6434 49.397C33.2091 49.996 32.7899 50.5799 32.3556 51.1789C31.9513 51.7928 31.592 52.4367 31.2176 53.0506C30.4689 54.3084 29.7652 55.5662 29.0914 56.809C27.6838 59.2647 26.6806 61.8701 25.7822 64.3408C25.333 65.5686 24.9287 66.7815 24.5543 67.9644C24.2249 69.1623 23.9853 70.3602 23.7607 71.4982C23.3265 73.7892 23.0719 75.9005 22.9971 77.8171C23.027 81.0664 23.1019 84.2408 23.2067 87.3254C23.4463 90.4699 23.7757 93.5545 24.0901 96.5342C24.5693 94.0785 24.9137 91.6528 25.1383 89.3319C25.4078 87.0259 25.6923 84.8697 25.7522 82.8183ZM32.8947 86.1425C33.7482 85.244 34.5268 84.3456 35.4103 83.5071L38.0756 81.0364L40.696 78.6406C41.5495 77.847 42.5377 77.1583 43.4362 76.4245C42.5228 77.0984 41.5345 77.7572 40.6511 78.4759L37.9857 80.707C36.1889 82.2194 34.3322 83.7766 32.6701 85.4986C31.3973 86.7714 30.0796 88.3436 28.8218 90.2003C27.6689 92.102 26.5608 94.2432 25.5126 96.5791C28.4625 86.6815 34.2124 78.8054 39.3483 75.0919C44.2597 71.618 49.231 68.6682 54.3071 66.3472C48.7219 73.9539 43.1966 81.0364 37.9857 85.274C35.9793 87.0559 33.9279 88.9126 31.8465 90.8442C29.885 92.8357 27.9683 94.932 25.9768 97.1182C27.01 94.8871 28.0881 92.7908 29.1962 90.9191C30.3492 89.0623 31.6818 87.4751 32.9246 86.1125L32.8947 86.1425ZM19.6729 118.815L18.2055 114.473C17.6964 112.99 17.3819 111.523 16.9776 110.026C16.214 107.016 15.3755 103.886 14.8963 100.757C14.5669 98.8551 14.3722 96.7139 14.3273 94.378C14.3722 92.0721 14.6417 89.5864 15.0161 86.966C15.3305 84.3157 16.1241 81.6803 16.9327 78.9251C17.367 77.5625 17.7712 76.155 18.3253 74.7924C18.8943 73.4448 19.4932 72.0822 20.1221 70.7345L20.3467 70.2554L20.167 75.6309C20.1371 77.4128 20.2419 79.2246 20.2868 80.9765L20.5264 86.1874C20.6612 87.9243 20.8858 89.6613 21.0655 91.3533C21.7692 98.5706 21.305 108.319 20.3617 118.516C20.3617 117.228 20.3168 115.97 20.2419 114.742C20.1371 113.499 20.182 112.331 20.0922 111.164C19.9574 108.858 19.6579 106.686 19.2387 104.725C18.8194 102.149 18.4151 99.514 18.0258 96.8037C17.8012 95.4411 17.6964 94.1085 17.5916 92.7459L17.2771 88.6281V88.9575L17.4418 93.0753L17.5317 95.0967L17.7413 97.1332C18.0408 99.8434 18.2953 102.494 18.6697 105.099C19.4184 109.157 19.4932 113.799 19.6879 118.8L19.6729 118.815ZM26.7405 107.016C28.178 104.964 29.6753 103.003 31.1128 101.086C31.4722 100.607 31.8315 100.128 32.2059 99.6637L33.3888 98.3011L35.7397 95.6358L33.3139 98.1514C32.4904 99.0049 31.6668 99.8733 30.9331 100.787C29.4208 102.599 27.8935 104.485 26.3512 106.432C25.288 107.914 24.2998 109.711 23.3714 111.762C22.9372 112.796 22.4131 113.859 22.0986 115.012C21.7542 116.165 21.4398 117.363 21.1403 118.59C22.443 108.438 26.5159 99.5739 31.2626 95.0818C32.3556 94.0037 33.4038 92.9555 34.4969 91.9373L37.9109 89.0474C39.0489 88.119 40.127 87.1757 41.2949 86.3222L44.8137 83.8515C44.3196 84.9146 43.7806 85.9628 43.2415 86.981C42.6575 87.9842 42.2532 89.0623 41.7142 90.0506C41.2051 91.0538 40.666 92.0421 40.112 92.9854C39.8425 93.4347 39.573 93.8988 39.2735 94.393C39.0339 94.8422 38.7793 95.3064 38.5098 95.8005C37.4766 97.6423 36.3536 99.3493 35.2156 100.936C34.1824 102.539 33.0893 103.991 31.9513 105.264C30.0197 107.315 28.4026 109.531 26.6506 111.822C25.8121 112.975 24.8538 114.128 24.0901 115.341L21.7243 119.04C22.7725 114.263 24.749 110.13 26.7255 107.001L26.7405 107.016ZM19.1039 141.351C16.0642 136.229 13.1893 130.689 10.8234 124.745C10.4491 123.846 10.1047 122.888 9.77529 121.87C9.50576 120.852 9.28115 119.773 9.07152 118.635C8.68221 116.374 8.33781 113.859 8.27792 111.238C8.27792 108.618 8.41268 105.833 8.69718 102.973C9.05655 100.128 9.70042 97.238 10.4042 94.3181L10.5389 93.809C11.1978 97.4476 11.7818 100.936 12.6203 104.365L13.9829 109.442C14.477 111.119 14.8364 112.736 15.4503 114.368C17.7413 121.316 18.9542 130.824 19.7478 140.931C19.2536 138.446 18.8344 136.065 18.1755 133.849C17.8761 132.741 17.4718 131.677 17.1873 130.659C16.8878 129.641 16.5434 128.683 16.1691 127.769L14.7016 124.086L13.9679 122.199L13.354 120.297C12.5454 117.752 11.7368 115.132 10.9432 112.436L11.0181 112.766C11.6919 115.461 12.3957 118.111 13.0994 120.687C13.4139 121.975 13.8781 123.247 14.3123 124.52L15.615 128.263C15.9445 129.207 16.2589 130.195 16.5434 131.228C16.8878 132.261 17.2172 133.325 17.5167 134.418C17.8162 135.511 18.0857 136.649 18.3402 137.802C18.5948 138.955 18.7745 140.153 19.0889 141.351H19.1039ZM24.4495 128.473L26.1116 125.119C26.6656 124.011 27.2047 122.933 27.8635 121.87C29.1213 119.743 30.3641 117.692 31.592 115.701C30.2893 117.602 28.9566 119.579 27.6239 121.63L26.6207 123.172L25.7373 124.76L23.9554 127.994C23.5062 128.818 23.0869 129.716 22.6826 130.674C22.2783 131.633 22.0238 132.666 21.7393 133.744C21.2302 135.915 20.736 138.311 20.5863 140.826C20.182 130.704 22.8922 121.316 26.8154 116.03C27.6539 114.772 28.732 113.574 29.6753 112.391L32.5802 108.932C34.5568 106.701 36.713 104.635 38.7045 102.643C38.1654 104.905 37.4617 107.091 36.713 109.202C36.0991 111.343 35.3653 113.41 34.5418 115.356C33.7482 117.318 33.0594 119.204 32.1759 120.941C31.7417 121.81 31.2925 122.648 30.8283 123.442C30.424 124.251 29.9898 125.014 29.5256 125.733C26.441 130.45 23.7607 135.601 21.2901 141.111C21.32 139.898 21.5147 138.715 21.7093 137.562C21.904 136.409 22.1286 135.301 22.3831 134.238C22.6377 133.175 22.9222 132.157 23.2366 131.183C23.611 130.21 24.0153 129.297 24.4345 128.443L24.4495 128.473ZM22.3981 163.317C18.2504 159.034 14.507 154.228 10.8684 148.972C6.58589 142.683 3.86067 131.363 4.92381 119.339L4.9837 118.815C7.51426 125.643 10.524 132.037 13.923 137.892C14.3572 138.67 14.7915 139.494 15.1958 140.362C15.66 141.231 16.0942 142.129 16.5135 143.058C17.352 144.929 18.1306 146.951 18.8044 149.077C20.4665 153.285 21.6494 157.956 23.012 162.748C22.5628 161.595 22.0986 160.472 21.5895 159.379C21.35 158.87 21.0954 158.346 20.8259 157.792C20.6013 157.268 20.3617 156.743 20.1371 156.234C19.1788 154.198 18.1306 152.356 16.9926 150.769C16.199 149.706 15.5252 148.613 14.8514 147.49L12.785 144.091C12.0962 142.938 11.4074 141.77 10.7336 140.587L8.90681 136.948L9.04157 137.248C9.5956 138.491 10.1347 139.733 10.7186 140.946L12.6203 144.525L14.5219 147.999L15.4803 149.706L16.5434 151.368C17.6365 153.06 18.6397 154.932 19.5681 156.953C20.0023 157.971 20.5414 158.99 21.0205 160.053C21.5147 161.116 21.9789 162.209 22.4281 163.332L22.3981 163.317ZM25.7971 149.691L26.3212 147.894L26.9651 146.097L28.2678 142.593L29.5705 139.194L31.1128 135.87L29.4358 139.089C28.9267 140.183 28.4625 141.276 27.9683 142.399L26.5159 145.813C26.0367 146.966 25.5276 148.149 25.1683 149.331C24.5693 151.098 24.1201 153.15 23.8506 155.381C23.7757 155.935 23.7158 156.504 23.6709 157.088C23.6559 157.657 23.6709 158.241 23.6709 158.84C23.7008 160.023 23.7607 161.251 23.8655 162.493C22.7126 157.672 22.6527 152.745 22.9222 148.403C23.2067 146.202 23.611 144.136 24.1201 142.249C24.3746 141.306 24.6591 140.407 24.9586 139.569C25.318 138.715 25.7073 137.922 26.1266 137.173C29.0914 131.588 32.4604 126.482 36.0991 121.915C35.2156 130.989 33.5236 139.599 30.6337 145.992C28.3427 151.173 26.2014 156.773 24.6442 162.643C24.5543 161.445 24.4944 160.262 24.4795 159.109C24.4645 157.956 24.4495 156.848 24.6142 155.74C24.8688 153.539 25.2581 151.503 25.7822 149.691H25.7971ZM29.1363 184.07C26.7704 182.393 24.3746 180.612 21.9339 178.725C20.6761 177.796 19.613 176.763 18.4451 175.745L14.9861 172.571C14.2824 171.912 13.5936 171.193 12.9048 170.399C12.231 169.591 11.647 168.707 11.0331 167.749C9.82021 165.847 8.66723 163.691 7.6041 161.325C6.66076 158.93 5.85218 156.324 5.13344 153.584C4.95375 152.85 4.78904 152.147 4.62433 151.503C4.48957 150.799 4.38475 150.08 4.27994 149.361C4.07031 147.909 3.89062 146.442 3.75586 144.959L3.71094 144.435C7.5442 150.589 11.8417 156.145 16.3487 161.116C18.8643 163.736 20.9756 167.18 23.3415 170.924C23.9105 171.867 24.4495 172.855 24.9736 173.858C25.4977 174.862 25.9768 175.91 26.5758 176.928C27.6988 178.979 28.747 181.151 29.6903 183.397C28.4774 181.3 27.1448 179.384 25.7522 177.647C25.4078 177.213 25.0485 176.793 24.6891 176.389C24.3597 175.97 24.0303 175.565 23.7008 175.176C23.042 174.382 22.3532 173.664 21.6644 173.005L18.8643 170.295C17.921 169.381 16.9776 168.438 16.1391 167.45C14.4022 165.488 12.6502 163.437 10.8833 161.325L11.078 161.58C12.7251 163.751 14.3722 165.862 16.0043 167.899C17.6515 169.935 19.5232 171.822 21.2451 173.679C23.8206 176.584 26.7405 180.058 29.1213 184.1L29.1363 184.07ZM30.7235 169.95L31.3823 166.207C31.6069 164.964 31.8016 163.766 32.146 162.538C32.7599 160.098 33.3888 157.717 34.0327 155.411C33.284 157.672 32.5353 160.008 31.8166 162.419C31.4273 163.631 31.1428 164.829 30.8732 166.042L30.0497 169.741C29.855 170.684 29.6903 171.672 29.6005 172.72C29.5555 173.244 29.5106 173.784 29.4957 174.323C29.4957 174.847 29.5256 175.401 29.5555 175.94C29.7053 178.141 30.0497 180.492 30.6037 182.917C29.7652 180.627 29.0614 178.321 28.5074 176.06C28.1929 174.951 28.0432 173.784 27.9234 172.646C27.7886 171.508 27.6988 170.399 27.6239 169.306C27.2496 164.994 28.0133 160.921 29.0914 157.717C31.3224 151.652 33.9279 146.022 36.9675 140.886C37.0723 141.994 37.1322 143.102 37.1622 144.21C37.1622 144.765 37.1772 145.319 37.1622 145.858C37.1622 146.412 37.2221 146.936 37.2371 147.49C37.3119 149.646 37.2371 151.772 37.0424 153.854C36.9825 155.905 36.7878 157.911 36.4584 159.828C36.2937 160.786 36.0691 161.745 35.8744 162.643C35.7097 163.542 35.5001 164.41 35.2456 165.264L34.0626 169.501C33.7033 170.924 33.2391 172.421 32.9995 173.858C32.4305 176.763 31.9064 179.773 31.4123 182.873C30.439 178.186 29.9598 173.813 30.7235 169.935V169.95ZM39.2435 202.862C36.3985 201.889 33.7781 200.616 31.023 199.284C29.6454 198.625 28.2678 197.921 26.8753 197.202C25.5276 196.454 24.2249 195.645 22.8773 194.822C21.2601 193.833 19.628 192.546 17.9958 190.988C16.4386 189.401 15.0011 187.484 13.5636 185.373C12.8449 184.31 12.1561 183.202 11.4673 182.049C10.8534 180.866 10.2844 179.623 9.73037 178.336C9.17634 177.048 8.65226 175.73 8.15813 174.382C7.64902 173.035 7.16986 171.642 6.87039 170.205L6.7506 169.696C7.36452 170.34 7.97844 170.983 8.60734 171.612L10.5839 173.439C11.9016 174.637 13.2192 175.805 14.5219 176.943C17.0525 179.249 19.8825 181.285 22.6077 183.217C24.0901 184.235 25.4228 185.508 26.9351 186.826C28.4325 188.158 29.8999 189.641 31.3075 191.273C32.6551 192.935 34.1824 194.582 35.5899 196.379C37.0125 198.161 38.2702 200.152 39.7227 202.039C38.0157 200.377 36.5033 198.7 34.8413 197.292C34.0177 196.588 33.1792 195.93 32.3407 195.346C31.4872 194.762 30.6337 194.223 29.855 193.714C27.7138 192.366 25.5426 190.958 23.3265 189.476C22.7874 189.102 22.2184 188.727 21.6794 188.338L20.1221 187.125L16.9776 184.61L17.2172 184.819L20.197 187.469C20.6911 187.904 21.1703 188.338 21.6944 188.742L23.2816 189.94C25.3929 191.527 27.4592 193.04 29.5106 194.477C31.1278 195.57 32.8348 196.783 34.437 198.221C35.2456 198.924 36.0392 199.688 36.8178 200.482C37.5815 201.29 38.4649 202.024 39.2585 202.862H39.2435ZM38.7494 188.652C38.8692 186.047 39.0339 183.501 39.2136 181.031L39.3483 179.189L39.6179 177.317L40.1719 173.649L39.4382 177.287L39.0788 179.144C38.974 179.758 38.9141 180.372 38.8392 180.986C38.5398 183.442 38.2553 185.987 38.0157 188.593C37.8959 189.581 37.9258 190.569 38.0157 191.587C38.1055 192.605 38.2553 193.669 38.4649 194.747C38.8991 196.903 39.4681 199.239 40.5313 201.38C35.575 193.249 33.6583 183.906 35.3204 177.048C36.0392 173.843 36.7279 170.789 37.7911 167.719C38.2852 166.207 38.7793 164.724 39.2735 163.272L40.0371 161.116C40.3216 160.397 40.6361 159.678 40.9356 158.975C41.0553 159.514 41.1602 160.038 41.265 160.577C41.3848 161.071 41.5195 161.595 41.6693 162.134C41.9238 163.182 42.1185 164.23 42.2982 165.278C42.4629 166.327 42.5976 167.375 42.6875 168.423C42.8372 169.441 42.987 170.444 43.0768 171.463C43.2715 173.469 43.2864 175.506 43.2265 177.437C43.2415 179.339 43.1067 181.196 42.8073 182.977C42.5677 184.43 42.3131 185.927 42.1335 187.425C41.9987 188.892 41.8639 190.374 41.7591 191.887C41.5345 194.911 41.2949 198.086 41.3997 201.14C40.9505 200.062 40.4714 199.059 40.1719 197.951C39.8574 196.858 39.6029 195.78 39.3783 194.717C38.974 192.591 38.6895 190.584 38.7494 188.637V188.652ZM52.1509 219.199C50.6984 218.989 49.216 218.765 47.7186 218.525L45.4576 218.136C44.7089 218.001 43.9902 217.806 43.2565 217.627C40.3216 216.893 37.282 216.099 34.2423 215.141C32.4754 214.512 30.6337 213.584 28.7619 212.386C27.8336 211.787 26.8902 211.113 25.9469 210.379C25.0035 209.661 24.165 208.777 23.2816 207.894C21.5596 206.082 19.8077 204.075 18.2205 201.814C16.7381 199.493 15.3305 196.993 14.0727 194.357L13.8481 193.893C16.9477 195.84 19.9874 197.652 22.9821 199.329C26.1415 200.901 29.2561 202.338 32.2957 203.641C33.8979 204.345 35.6948 205.123 37.3718 206.127C39.0938 207.1 40.696 208.328 42.418 209.556C44.1699 210.769 45.8769 212.131 47.509 213.629C48.3026 214.407 49.1711 215.126 50.0396 215.875C50.8931 216.638 51.7316 217.432 52.5402 218.255C51.6118 217.567 50.6535 216.938 49.6952 216.369C48.8566 215.89 47.8983 215.336 46.8502 214.737C45.0084 213.688 43.1367 212.865 41.2949 212.296C38.7793 211.592 36.4434 210.604 34.0027 209.631C31.592 208.612 29.0165 207.624 26.6806 206.336L26.9501 206.501L28.6571 207.504L30.454 208.403L34.0027 210.125L37.4916 211.742C38.6296 212.281 39.8874 212.685 41.0703 213.134C42.9121 213.808 44.7389 214.692 46.5507 215.77C48.4074 216.788 50.339 217.896 52.1509 219.214V219.199ZM49.7551 205.094C49.6203 203.806 49.4107 202.593 49.3508 201.29L49.1711 197.457C49.0962 194.911 48.9165 192.546 49.0962 190C48.7968 192.546 48.8417 194.941 48.7968 197.502C48.7968 200.032 48.7369 202.713 48.9914 205.228C49.1262 207.16 49.5604 209.196 50.2492 211.308C50.5636 212.386 51.0428 213.359 51.5669 214.377C52.091 215.38 52.6749 216.399 53.3038 217.387C52.5402 216.518 51.8065 215.635 51.1177 214.737C50.4139 213.838 49.7551 212.925 49.216 211.922C48.093 209.96 47.1347 207.983 46.3411 206.037C45.5624 204.075 45.1581 201.994 44.8287 200.077C44.5442 198.131 44.3645 196.334 44.5592 194.522C44.9036 191.153 45.3079 187.919 45.7721 184.804C46.4159 181.585 47.1047 178.5 47.8534 175.55C51.1776 183.247 53.3787 191.153 53.0643 198.58C53.0193 201.53 53.0942 204.525 53.214 207.639C53.2589 208.418 53.2739 209.211 53.3338 209.975L53.5734 212.266C53.7381 213.808 53.9327 215.366 54.1274 216.938C52.9445 214.976 51.8813 213.06 51.1626 211.053C50.4738 209.002 49.9946 206.995 49.77 205.079L49.7551 205.094ZM67.3791 232.66C64.3993 232.915 61.3597 233.034 58.2152 233.109C57.4366 233.109 56.628 233.154 55.8494 233.124L53.5284 233.005C51.9712 232.915 50.384 232.81 48.7818 232.675C44.8437 232.465 40.7708 230.669 36.5183 228.063C34.4519 226.701 32.5054 224.964 30.5288 223.092C29.5705 222.134 28.5523 221.19 27.6988 220.067C26.8303 218.974 25.9768 217.821 25.1533 216.638L24.8688 216.219C26.5758 216.848 28.2678 217.447 29.9449 218.016C31.592 218.6 33.3888 219.004 35.0808 219.468C38.5248 220.307 41.7441 221.175 45.1881 221.595C48.8117 222.104 52.4354 223.496 56.3135 225.113C57.2569 225.548 58.2002 226.012 59.1436 226.521C59.6377 226.79 60.1019 227.06 60.5511 227.3C61.0602 227.569 61.5543 227.809 62.0036 228.048C63.9352 229.081 65.8218 230.279 67.6486 231.627C63.6357 229.605 59.3233 228.617 55.5499 228.183C53.0044 227.943 50.3091 227.749 47.7186 227.285C45.1432 226.82 42.5078 226.281 39.8125 225.682L40.127 225.772C42.7324 226.506 45.2929 227.165 47.7935 227.779C50.339 228.333 52.9445 228.707 55.4301 229.096C56.3884 229.231 57.3617 229.441 58.335 229.68C59.3233 229.905 60.3564 230.115 61.3597 230.414C63.3961 230.983 65.3876 231.777 67.4091 232.675L67.3791 232.66ZM63.1116 218.914C62.5127 216.354 61.8987 213.943 61.4645 211.427C61.0602 208.882 60.7158 206.396 60.4313 203.971C60.596 206.426 60.8206 208.957 61.0902 211.562C61.3747 214.153 61.8838 216.608 62.3479 219.229C63.0068 223.227 65.2528 226.985 68.2476 230.579C66.5106 229.126 64.8935 227.554 63.441 225.937C63.0817 225.533 62.7223 225.113 62.3779 224.709C62.0485 224.29 61.749 223.826 61.4346 223.376C60.8356 222.478 60.2816 221.565 59.7725 220.651C57.6612 217.087 56.643 213.104 56.4184 209.556C56.1488 206.276 56.2986 202.788 56.3884 199.583C56.4633 197.936 56.4783 196.409 56.6729 194.762C56.8526 193.13 57.0473 191.542 57.2569 189.985C59.4281 193.414 61.4495 196.798 62.7672 200.542C64.3245 204.03 65.1331 207.983 65.6122 211.547C65.7769 213.045 65.9566 214.557 66.1662 216.099L66.4957 218.42C66.6155 219.184 66.7802 219.918 66.9299 220.681C67.5438 223.691 68.2176 226.82 69.0562 229.935C67.6037 228.243 66.3759 226.401 65.3427 224.574C64.8336 223.661 64.3694 222.763 63.9951 221.819C63.6357 220.846 63.3512 219.888 63.1116 218.929V218.914ZM84.4641 242.782C82.9817 243.276 81.4694 243.801 79.942 244.25C78.4447 244.639 76.9174 245.028 75.3601 245.388C72.2605 246.092 68.9963 246.825 65.8069 247.185C63.8603 247.439 61.764 247.424 59.5479 247.155C58.4248 247.05 57.3318 246.78 56.2237 246.451C55.1157 246.122 53.9776 245.732 52.8396 245.283C51.7016 244.834 50.5487 244.325 49.3957 243.756C48.2277 243.202 47.1646 242.438 46.0566 241.704C44.9635 240.956 43.8554 240.147 42.7923 239.279C41.7292 238.41 40.6211 237.542 39.6628 236.493L39.3184 236.134C46.6705 237.032 53.783 237.287 60.7158 236.733C64.3245 236.583 68.3824 236.778 72.3504 237.751C72.8745 237.886 73.3686 238.006 73.8478 238.126C74.3569 238.23 74.8809 238.35 75.39 238.47C76.4232 238.725 77.4414 239.024 78.4596 239.353C79.4779 239.698 80.4961 240.072 81.4993 240.491C82.5175 240.881 83.5657 241.24 84.5839 241.674C83.4908 241.435 82.3828 241.3 81.3047 241.15C80.2415 240.956 79.1784 240.836 78.1302 240.761C76.0339 240.626 73.9526 240.731 71.976 241.06C66.855 241.674 61.2998 242.288 55.8494 242.094H56.1788L60.1768 242.348C61.4795 242.423 62.872 242.348 64.1897 242.348C66.855 242.273 69.4305 242.198 71.991 242.004C73.9975 241.779 76.0489 241.749 78.1302 241.929C79.1784 242.004 80.2116 242.168 81.2597 242.318C82.3378 242.423 83.4159 242.588 84.4941 242.797L84.4641 242.782ZM78.3249 229.785C76.4831 224.784 74.821 220.142 73.7429 215.171C74.5665 220.292 76.004 225.098 77.5912 230.309C78.25 232.151 79.2233 233.948 80.4811 235.7C81.11 236.568 81.7988 237.422 82.5475 238.245C83.3111 239.039 84.1646 239.728 85.0631 240.432C84.0898 239.922 83.1165 239.428 82.2031 238.814C81.3196 238.17 80.4512 237.512 79.6276 236.808C78.804 236.119 78.0254 235.4 77.2767 234.667C76.9024 234.292 76.543 233.933 76.1986 233.544C75.8542 233.154 75.5398 232.72 75.2403 232.316C72.7846 228.947 71.0177 225.518 70.4487 221.789C69.1909 215.081 68.6968 208.343 68.7267 201.934C69.3706 202.683 70.0444 203.357 70.7033 204.06C71.3471 204.779 71.9611 205.513 72.5301 206.291C73.114 207.055 73.6231 207.909 74.1622 208.687C74.7162 209.451 75.2253 210.245 75.7045 211.068C76.1836 211.892 76.6179 212.745 77.0222 213.614C77.3815 214.422 77.7559 215.291 78.1752 216.234C78.9089 217.941 79.4928 219.753 79.9121 221.595C80.556 224.694 81.4544 227.554 82.4127 230.579C82.8919 232.076 83.4159 233.603 83.955 235.146C84.524 236.628 85.1379 238.066 85.7668 239.563C84.9133 238.889 84.1197 238.17 83.356 237.437C82.6223 236.658 81.9635 235.82 81.3346 234.981C80.0918 233.304 79.0885 231.552 78.3249 229.77V229.785ZM102.747 249.506C99.9918 251.108 97.0869 252.815 94.1072 254.222C91.1424 255.6 88.0578 256.918 84.8534 258.19C82.9368 258.924 80.8704 259.283 78.6393 259.463C77.5313 259.553 76.3783 259.568 75.1954 259.538C74.6114 259.523 74.0125 259.493 73.4135 259.433C72.8295 259.343 72.2306 259.253 71.6316 259.134C69.2359 258.669 66.7652 257.966 64.2945 257.022C61.8688 255.989 59.488 254.627 57.1671 253.099L56.7628 252.83C60.5661 252.395 64.2047 251.946 67.7984 251.213C71.437 250.419 74.9408 249.536 78.3099 248.577C80.1517 247.963 82.0683 247.529 84.0299 247.274C86.0064 246.975 87.9679 247.02 90.0643 246.915C92.1306 246.87 94.227 246.99 96.3083 247.289C98.4046 247.544 100.576 247.784 102.687 248.308C100.486 248.233 98.2699 248.487 96.1735 248.832C94.0922 249.101 92.0707 249.625 90.1541 250.374C88.8813 250.868 87.5786 251.392 86.2759 251.841L82.3528 253.054C79.7025 253.803 76.9174 254.642 74.1622 255.196L74.4916 255.151C77.2168 254.731 79.942 254.102 82.5624 253.519C83.8801 253.219 85.1679 252.92 86.4406 252.575L90.2889 251.362C92.2355 250.718 94.2569 250.284 96.3233 250.06C98.4346 249.685 100.576 249.491 102.747 249.506ZM94.9157 237.332L93.044 233.963C92.4601 232.78 91.906 231.597 91.382 230.429C90.3188 228.063 89.2856 225.862 88.4172 223.466C89.1658 225.967 90.0942 228.273 91.0525 230.758C91.5317 231.986 92.0408 233.214 92.5649 234.472C93.1039 235.685 93.6879 236.838 94.2719 238.036C95.1553 239.818 96.3532 241.51 97.8206 243.082C99.303 244.579 101.07 245.807 103.017 246.93C100.965 246.241 98.9586 245.508 97.1468 244.429C95.35 243.306 93.6879 242.049 92.2055 240.701C90.7081 239.413 89.4953 237.706 88.4471 236.104C87.4139 234.472 86.5904 232.765 86.0064 231.043C84.9882 227.629 84.1197 224.29 83.371 221.056C82.6523 217.746 82.1731 214.347 81.7688 211.143C87.7733 215.575 92.7146 221.325 95.335 228.662C96.4431 231.507 97.6709 234.412 99.0185 237.377C100.381 240.297 101.938 243.007 103.571 245.897C101.714 244.804 100.022 243.546 98.5544 242.183C97.1169 240.671 95.889 239.039 94.9157 237.332ZM121.704 252.725C119.248 254.941 116.658 257.157 113.932 259.343C113.244 259.882 112.555 260.451 111.866 260.96L109.755 262.443C108.332 263.431 106.88 264.404 105.397 265.378C101.789 267.833 97.3415 268.956 92.3852 269.271C91.1424 269.376 89.8996 269.301 88.6268 269.181C87.369 269.061 86.0813 268.867 84.7935 268.627C83.5058 268.387 82.2031 268.073 80.9004 267.714C79.6276 267.264 78.3548 266.755 77.097 266.201L76.6478 266.007C78.5046 265.408 80.3314 264.779 82.1132 264.135C83.9251 263.401 85.7069 262.637 87.4588 261.874C90.9477 260.317 94.2719 258.759 97.5361 256.813C99.2581 255.824 101.085 254.986 102.987 254.342C104.02 253.998 104.993 253.683 105.891 253.384C106.88 253.069 107.883 252.815 108.901 252.59C112.929 251.856 117.197 251.213 121.494 251.497C117.167 252.156 113.004 254.028 109.5 256.199C107.149 257.726 104.694 259.313 102.178 260.706C99.6774 262.039 97.072 263.356 94.3917 264.614L94.7061 264.479C97.3714 263.401 99.9469 262.278 102.448 261.14C104.963 259.882 107.419 258.52 109.785 257.187C110.698 256.663 111.626 256.199 112.585 255.78C113.543 255.315 114.531 254.866 115.535 254.477C117.541 253.698 119.622 253.099 121.734 252.725H121.704ZM112.24 241.599C110.668 239.458 109.171 237.392 107.793 235.236C106.431 232.99 105.158 230.773 103.96 228.587C105.053 230.908 106.236 233.259 107.524 235.64C108.811 237.961 110.234 240.147 111.716 242.438C113.932 245.972 117.451 248.323 121.569 249.955C119.458 249.64 117.391 249.131 115.46 248.472C113.513 247.873 111.716 246.735 110.084 245.627C109.261 245.058 108.482 244.459 107.763 243.816C107.029 243.187 106.356 242.513 105.742 241.734C104.499 240.222 103.466 238.605 102.672 236.898C101.145 233.798 99.872 230.429 98.734 227.18C98.165 225.548 97.626 223.96 97.1319 222.358C96.6677 220.681 96.2484 219.019 95.8591 217.387C96.6826 217.761 97.4613 218.196 98.2249 218.675C99.0036 219.124 99.7822 219.528 100.516 220.037C101.265 220.531 101.968 221.07 102.672 221.669C103.361 222.253 104.02 222.927 104.694 223.496C107.359 225.877 109.605 229.126 111.432 232.421C112.165 233.813 112.929 235.221 113.738 236.628L114.966 238.754C115.385 239.443 115.819 240.087 116.268 240.761C118.035 243.426 119.937 246.107 121.988 248.802C120.012 247.993 118.185 246.99 116.538 245.822C115.714 245.223 114.936 244.624 114.232 243.935C113.528 243.202 112.869 242.423 112.27 241.629L112.24 241.599ZM43.5859 64.3108L40.4864 67.605C39.4681 68.7281 38.5547 69.9409 37.5665 71.1089C36.6082 72.3068 35.6049 73.4747 34.6766 74.7026L31.9963 78.5059C33.4637 73.7293 35.7996 69.6115 38.1355 66.3323L43.0768 60.2679L48.3475 54.6228L48.5422 54.4132L48.0181 54.9223C46.2512 56.6892 44.4244 58.4411 42.6575 60.2679L37.821 65.7932C35.3953 68.9077 32.9546 73.1603 31.4572 78.1166C33.5984 68.1591 38.5697 59.0401 43.9752 54.2335C46.371 51.8527 49.0663 49.8163 51.6118 47.7349C52.8546 46.6568 54.2621 45.7584 55.5948 44.8151L59.5928 42.0449C54.0226 50.8644 48.632 59.0251 43.5709 64.3108H43.5859Z" fill="#DCF5FF"/>
<path d="M25.7542 82.8191C25.8141 81.5014 25.844 80.1388 25.9488 78.8061L26.3681 74.8082C26.6526 72.1129 26.9371 69.3577 27.4762 66.6924L27.5211 66.333C27.7906 64.3565 28.2099 62.395 28.704 60.5382C29.2431 58.7114 29.9318 57.0344 30.5607 55.5071C31.1896 53.9947 31.8185 52.6621 32.3426 51.5989C32.8966 50.5657 33.3758 49.817 33.6453 49.3828C33.2111 49.9818 32.7918 50.5657 32.3576 51.1647C31.9533 51.7786 31.5939 52.4225 31.2196 53.0364C30.4709 54.2942 29.7671 55.552 29.0933 56.7948C27.6858 59.2505 26.6826 61.8559 25.7841 64.3266C25.3349 65.5544 24.9306 66.7673 24.5563 67.9502C24.2269 69.1481 23.9873 70.346 23.7627 71.484C23.3284 73.775 23.0739 75.8863 22.999 77.8029C23.029 81.0522 23.1038 84.2266 23.2087 87.3112C23.4482 90.4557 23.7777 93.5403 24.0921 96.52C24.5713 94.0643 24.9157 91.6386 25.1403 89.3177C25.4098 87.0117 25.6943 84.8555 25.7542 82.8041V82.8191ZM19.6749 118.816L18.2074 114.473C17.6983 112.991 17.3839 111.524 16.9796 110.026C16.2159 107.017 15.3774 103.887 14.8982 100.758C14.5688 98.8559 14.3742 96.7147 14.3292 94.3788C14.3742 92.0728 14.6437 89.5872 15.018 86.9668C15.3325 84.3165 16.1261 81.6811 16.9347 78.9259C17.3689 77.5633 17.7732 76.1558 18.3272 74.7932C18.8962 73.4456 19.4952 72.0829 20.1241 70.7353C19.9444 71.2145 19.6299 72.068 19.2706 73.191C18.9112 74.314 18.462 75.7066 18.1775 77.3537C17.863 78.9858 17.5636 80.7976 17.3689 82.6993C17.2791 83.6576 17.1743 84.6159 17.1593 85.6042C17.1593 86.6074 17.2042 87.6107 17.2791 88.6139L17.309 88.9733L17.4588 93.091L17.5486 95.1125L17.7582 97.1489C18.0577 99.8592 18.3123 102.51 18.6866 105.115C19.4353 109.173 19.5101 113.815 19.7048 118.816H19.6749ZM19.1059 141.351C16.0662 136.23 13.1912 130.69 10.8254 124.745C10.4511 123.847 10.1067 122.889 9.77724 121.87C9.50771 120.852 9.28311 119.774 9.07348 118.636C8.68416 116.375 8.33977 113.86 8.27987 111.239C8.27987 108.619 8.41463 105.834 8.69913 102.974C9.0585 100.129 9.70237 97.2388 10.4061 94.3189C10.2414 95.3371 9.86708 97.9126 9.71735 101.207C9.59756 102.839 9.77724 104.711 9.94195 106.612C10.1366 108.529 10.4511 110.505 10.9152 112.422L11.0201 112.766C11.6939 115.462 12.3976 118.112 13.1014 120.688C13.4159 121.975 13.88 123.248 14.3143 124.521L15.617 128.264C15.9464 129.208 16.2609 130.196 16.5454 131.229C16.8897 132.262 17.2192 133.325 17.5186 134.418C17.8181 135.512 18.0876 136.65 18.3422 137.803C18.5968 138.955 18.7764 140.153 19.0909 141.351H19.1059ZM22.4001 163.318C18.2524 159.035 14.5089 154.229 10.8703 148.973C6.58784 142.684 3.86263 131.364 4.92576 119.34C4.92576 119.864 4.88084 120.762 4.98566 121.945C5.09047 123.128 5.27016 124.596 5.52471 126.213C5.79424 127.845 6.13863 129.627 6.64774 131.454C7.24669 133.28 7.9804 135.137 8.86384 136.919L9.02856 137.234C9.58258 138.476 10.1216 139.719 10.7056 140.932L12.6073 144.511L14.5089 147.985L15.4672 149.692L16.5304 151.354C17.6235 153.046 18.6267 154.917 19.5551 156.939C19.9893 157.957 20.5284 158.975 21.0075 160.038C21.5016 161.102 21.9658 162.195 22.415 163.318H22.4001ZM29.1382 184.071C26.7724 182.394 24.3766 180.612 21.9359 178.726C20.6781 177.797 19.615 176.764 18.447 175.746L14.9881 172.571C14.2843 171.913 13.5955 171.194 12.9067 170.4C12.2329 169.592 11.649 168.708 11.035 167.75C9.82216 165.848 8.66919 163.692 7.60605 161.326C6.66271 158.93 5.85413 156.325 5.13539 153.585C4.95571 152.851 4.791 152.147 4.62629 151.503C4.49152 150.8 4.38671 150.081 4.28189 149.362C4.07226 147.91 3.89258 146.442 3.75781 144.96C3.95247 145.963 4.4466 148.494 5.50974 151.563C6.73758 154.603 8.39966 158.197 10.8553 161.281L11.08 161.551C12.7271 163.722 14.3742 165.833 16.0063 167.87C17.6534 169.906 19.5251 171.793 21.2471 173.65C23.8226 176.554 26.7424 180.028 29.1233 184.071H29.1382ZM39.2455 202.863C36.4005 201.89 33.7801 200.617 31.0249 199.285C29.6473 198.626 28.2698 197.922 26.8772 197.203C25.5296 196.455 24.2269 195.646 22.8792 194.822C21.2621 193.834 19.6299 192.546 17.9978 190.989C16.4405 189.402 15.0031 187.485 13.5656 185.374C12.8468 184.311 12.1581 183.203 11.4693 182.05C10.8553 180.867 10.2863 179.624 9.73232 178.336C9.17829 177.049 8.65421 175.731 8.16008 174.383C7.65098 173.036 7.17182 171.643 6.87234 170.206C7.15684 171.179 8.19003 173.5 9.85211 176.24C10.6757 177.618 11.6639 179.085 12.8019 180.552C13.9549 182.005 15.4223 183.353 16.9347 184.595L17.2042 184.82L20.184 187.47C20.6781 187.905 21.1573 188.339 21.6813 188.743L23.2685 189.941C25.3798 191.528 27.4462 193.04 29.4976 194.478C31.1148 195.571 32.8218 196.784 34.424 198.221C35.2325 198.925 36.0261 199.689 36.8048 200.482C37.5684 201.291 38.4519 202.025 39.2455 202.863ZM52.1528 219.2C50.7004 218.99 49.218 218.765 47.7206 218.526L45.4596 218.136C44.7109 218.002 43.9922 217.807 43.2584 217.627C40.3236 216.894 37.2839 216.1 34.2443 215.142C32.4774 214.513 30.6356 213.584 28.7639 212.387C27.8355 211.788 26.8922 211.114 25.9488 210.38C25.0055 209.661 24.167 208.778 23.2835 207.894C21.5615 206.083 19.8096 204.076 18.2224 201.815C16.74 199.494 15.3325 196.994 14.0747 194.358C14.6137 195.212 15.9913 197.308 18.0727 199.689C18.5968 200.288 19.1508 200.902 19.7647 201.501C20.4086 202.085 21.1123 202.669 21.846 203.238C23.3135 204.376 24.9306 205.454 26.6526 206.337L26.9671 206.502L28.6741 207.505L30.4709 208.404L34.0197 210.125L37.5085 211.743C38.6465 212.282 39.9043 212.686 41.0873 213.135C42.929 213.809 44.7558 214.692 46.5676 215.771C48.4244 216.789 50.356 217.897 52.1678 219.215L52.1528 219.2ZM67.3811 232.661C64.4013 232.915 61.3616 233.035 58.2172 233.11C57.4385 233.11 56.63 233.155 55.8513 233.125L53.5304 233.005C51.9731 232.915 50.3859 232.811 48.7837 232.676C44.8456 232.466 40.7728 230.669 36.5203 228.064C34.4539 226.701 32.5073 224.964 30.5308 223.093C29.5725 222.134 28.5543 221.191 27.7008 220.068C26.8323 218.975 25.9788 217.822 25.1552 216.639C25.4847 217.013 26.0686 217.642 26.8772 218.421C27.7008 219.2 28.6741 220.173 29.9917 221.041C31.2795 221.94 32.7619 222.853 34.394 223.677C36.0411 224.485 37.7481 225.279 39.7396 225.653L40.084 225.728C42.6894 226.462 45.2499 227.121 47.7506 227.735C50.2961 228.289 52.9015 228.663 55.3871 229.052C56.3455 229.187 57.3187 229.397 58.292 229.636C59.2803 229.861 60.3135 230.07 61.3167 230.37C63.3531 230.939 65.3447 231.733 67.3661 232.631L67.3811 232.661ZM84.4661 242.783C82.9837 243.277 81.4713 243.801 79.944 244.251C78.4466 244.64 76.9193 245.029 75.3621 245.389C72.2625 246.092 68.9982 246.826 65.8088 247.185C63.8623 247.44 61.7659 247.425 59.5498 247.155C58.4268 247.051 57.3337 246.781 56.2257 246.452C55.1176 246.122 53.9796 245.733 52.8416 245.284C51.7036 244.835 50.5506 244.325 49.3977 243.756C48.2297 243.202 47.1666 242.439 46.0585 241.705C44.9654 240.956 43.8574 240.148 42.7943 239.279C41.7311 238.411 40.6231 237.542 39.6647 236.494C40.3835 237.153 42.4499 238.456 45.2649 239.743C46.6724 240.372 48.2896 241.001 50.0415 241.48C51.8533 241.87 53.7999 242.124 55.8064 242.139H56.1658L60.1638 242.379C61.4665 242.454 62.859 242.379 64.1767 242.379C66.842 242.304 69.4175 242.229 71.978 242.034C73.9845 241.81 76.0359 241.78 78.1172 241.96C79.1654 242.034 80.1986 242.199 81.2467 242.349C82.3248 242.454 83.4029 242.618 84.481 242.828L84.4661 242.783ZM102.749 249.506C99.9938 251.109 97.0889 252.816 94.1091 254.223C91.1443 255.601 88.0598 256.918 84.8554 258.191C82.9388 258.925 80.8724 259.284 78.6413 259.464C77.5332 259.554 76.3803 259.569 75.1973 259.539C74.6134 259.524 74.0144 259.494 73.4155 259.434C72.8315 259.344 72.2326 259.254 71.6336 259.134C69.2378 258.67 66.7672 257.966 64.2965 257.023C61.8708 255.99 59.4899 254.627 57.169 253.1C58.0375 253.504 60.2386 254.478 63.2334 255.181C64.7008 255.586 66.4827 255.705 68.3244 255.75C70.1812 255.78 72.1427 255.631 74.1342 255.226L74.4936 255.151C77.2188 254.732 79.944 254.103 82.5644 253.519C83.8821 253.22 85.1698 252.92 86.4426 252.576L90.2908 251.363C92.2374 250.719 94.2589 250.285 96.3252 250.06C98.4365 249.686 100.578 249.491 102.749 249.506ZM121.706 252.726C119.25 254.942 116.66 257.158 113.934 259.344C113.246 259.883 112.557 260.452 111.868 260.961L109.757 262.444C108.334 263.432 106.882 264.405 105.399 265.378C101.791 267.834 97.3435 268.957 92.3872 269.272C91.1443 269.376 89.9015 269.302 88.6288 269.182C87.371 269.062 86.0832 268.867 84.7955 268.628C83.5078 268.388 82.205 268.074 80.9023 267.714C79.6296 267.265 78.3568 266.756 77.099 266.202C77.5632 266.322 78.3718 266.531 79.4499 266.711C79.9889 266.801 80.5879 266.906 81.2617 266.966C81.9355 266.996 82.6692 267.011 83.4628 267.011C85.0351 266.981 86.787 266.846 88.6138 266.501C89.5272 266.337 90.4705 266.112 91.4288 265.828C92.3722 265.543 93.3605 265.109 94.3337 264.66L94.6781 264.495C97.3435 263.417 99.9189 262.294 102.42 261.156C104.935 259.898 107.391 258.535 109.757 257.203C110.67 256.679 111.598 256.215 112.557 255.795C113.515 255.331 114.503 254.882 115.507 254.493C117.513 253.714 119.594 253.115 121.706 252.741V252.726Z" fill="#DCF5FF"/>
<path d="M25.9465 97.1332C27.938 94.962 29.8696 92.8657 31.8162 90.8592C33.8976 88.9126 35.949 87.0559 37.9554 85.289C43.0914 81.1113 48.5119 74.1785 54.0222 66.6916C53.7527 66.9911 53.2586 67.4852 52.6297 68.1441C52.0307 68.8329 51.2521 69.6564 50.3237 70.5548C49.4103 71.4533 48.3172 72.4116 47.1493 73.3999C46.0412 74.433 44.7984 75.4512 43.4508 76.4096L43.2112 76.5743C41.3545 77.9519 39.6924 79.5241 37.9704 81.1113L35.365 83.537C34.5115 84.3756 33.7329 85.259 32.9093 86.1275C31.6665 87.4901 30.3338 89.0773 29.1809 90.9341C28.0728 92.8058 26.9797 94.8871 25.9615 97.1332H25.9465ZM26.7401 107.016C28.1477 105.009 29.6301 103.078 31.0376 101.206L32.1007 99.8135L33.2687 98.4658L35.5746 95.8454L35.7843 95.6358C36.3682 95.0369 36.9223 94.4379 37.4463 93.824C37.9704 93.225 38.5394 92.6411 39.0335 92.0571C40.0368 90.8891 40.9053 89.7362 41.6539 88.688C42.3577 87.6249 43.0615 86.7115 43.5856 85.9628C44.1096 85.2141 44.469 84.6152 44.6786 84.2857C44.1845 85.3339 43.6604 86.3521 43.1064 87.3553C42.5823 88.3586 42.1331 89.3918 41.609 90.38C40.6058 92.3566 39.4079 94.1983 38.4496 96.0251C37.4314 97.8369 36.3083 99.514 35.2003 101.071C34.1821 102.643 33.104 104.081 31.9809 105.324C30.0493 107.375 28.4322 109.591 26.6802 111.882C25.8417 113.035 24.8834 114.188 24.1197 115.401L21.7539 119.1C22.8021 114.323 24.7786 110.19 26.7551 107.061L26.7401 107.016ZM24.4492 128.473L26.0813 125.179C26.6204 124.101 27.1444 123.038 27.7883 121.99C29.0161 119.908 30.244 117.887 31.4419 115.925L31.6066 115.686C32.6697 114.323 33.5831 112.945 34.3618 111.628C35.1703 110.31 35.7244 109.007 36.3832 107.884C37.611 105.608 38.3298 103.796 38.6143 103.048C38.0752 105.279 37.3415 107.405 36.6378 109.501C36.0238 111.613 35.2901 113.634 34.4815 115.551C33.7179 117.482 33.0141 119.339 32.1456 121.046C31.7264 121.9 31.2622 122.723 30.813 123.517C30.4087 124.31 29.9745 125.059 29.5402 125.778C26.4556 130.495 23.7753 135.646 21.3047 141.156C21.3346 139.943 21.5293 138.76 21.724 137.607C21.9186 136.454 22.1432 135.346 22.3978 134.283C22.6523 133.22 22.9368 132.202 23.2513 131.228C23.6256 130.255 24.0299 129.342 24.4492 128.488V128.473ZM25.7968 149.691L26.3209 147.924L26.9498 146.172L28.2225 142.728L29.4953 139.389C29.9745 138.281 30.4985 137.203 30.9927 136.125L31.1424 135.855C31.966 134.328 32.6248 132.83 33.1489 131.393C33.7628 129.956 34.2869 128.608 34.6762 127.395C35.0655 126.182 35.365 125.104 35.5597 124.236C35.7693 123.367 35.9789 122.708 36.0538 122.319C35.1703 131.243 33.4933 139.703 30.6333 146.007C28.3423 151.188 26.2011 156.788 24.6438 162.658C24.554 161.46 24.4941 160.277 24.4791 159.124C24.4641 157.971 24.4492 156.863 24.6139 155.755C24.8684 153.554 25.2577 151.518 25.7818 149.706L25.7968 149.691ZM30.7231 169.95C31.1724 167.45 31.5168 165.069 32.1007 162.673C32.6997 160.277 33.3286 157.941 33.9425 155.665L34.0473 155.366C35.2602 152.072 36.0238 148.942 36.3233 146.442C36.8025 143.926 36.9522 142.024 36.9822 141.261C37.072 142.354 37.1319 143.447 37.1469 144.54C37.1469 145.049 37.1469 145.588 37.1469 146.157C37.1768 146.696 37.2068 147.22 37.2217 147.759C37.2966 149.886 37.1918 151.982 37.0121 154.033C36.9522 156.055 36.7575 158.016 36.4281 159.918C36.2784 160.861 36.0388 161.805 35.8591 162.688C35.6944 163.571 35.4848 164.44 35.2452 165.264L34.0623 169.501C33.7029 170.924 33.2387 172.421 32.9991 173.858C32.4301 176.763 31.9061 179.773 31.4119 182.873C30.4386 178.186 29.9595 173.813 30.7231 169.935V169.95ZM38.7491 188.652C38.8688 186.092 39.0186 183.591 39.1983 181.166L39.333 179.354C39.3929 178.755 39.4977 178.126 39.5726 177.512L40.1117 173.903L40.1716 173.589C40.5609 171.852 40.7106 170.235 40.9053 168.692C41.1149 167.135 41.2047 165.698 41.2197 164.44C41.2497 161.924 41.0101 160.098 40.9951 159.334C41.1898 160.397 41.4743 161.415 41.7138 162.448C41.9534 163.482 42.1481 164.515 42.3128 165.548C42.4775 166.581 42.5973 167.614 42.6871 168.648C42.8518 169.651 42.9866 170.639 43.0764 171.642C43.2711 173.619 43.2561 175.625 43.2112 177.527C43.2262 179.399 43.0914 181.225 42.7919 182.977C42.5524 184.43 42.2978 185.927 42.1181 187.425C41.9834 188.892 41.8486 190.374 41.7438 191.887C41.5192 194.911 41.2796 198.086 41.3844 201.14C40.9352 200.062 40.4561 199.059 40.1566 197.951C39.8421 196.858 39.5876 195.78 39.363 194.717C38.9587 192.591 38.6742 190.584 38.7341 188.637L38.7491 188.652ZM49.7547 205.094C49.62 203.836 49.4253 202.653 49.3654 201.365L49.1857 197.607L49.0659 193.938L49.021 192.141L49.0959 190.3L49.1258 189.97C49.3055 188.158 49.3355 186.481 49.2606 184.954C49.2306 184.19 49.1707 183.472 49.0809 182.783C49.036 182.079 48.9911 181.405 48.9312 180.791C48.6766 178.306 48.2124 176.569 48.0028 175.88C51.1922 183.501 53.3784 191.243 53.0639 198.595C53.019 201.545 53.0939 204.54 53.2136 207.654C53.2586 208.433 53.2735 209.226 53.3334 209.99L53.573 212.281C53.7377 213.823 53.9324 215.38 54.127 216.953C52.9441 214.991 51.881 213.075 51.1622 211.068C50.4735 209.017 49.9943 207.01 49.7697 205.094H49.7547ZM63.1113 218.914C62.5273 216.414 61.9283 214.033 61.4941 211.577C61.1048 209.077 60.7604 206.636 60.4609 204.255V203.941C60.2962 202.189 60.1914 200.422 59.9368 198.909C59.6973 197.382 59.3678 196.049 59.0234 194.896C58.6491 193.773 58.4095 192.71 58.125 191.932C57.8555 191.138 57.6159 190.569 57.4662 190.255C58.0202 191.078 58.5293 191.932 59.0085 192.8C59.4577 193.684 60.0267 194.462 60.4759 195.346C61.4192 197.038 62.1529 198.894 62.8567 200.661C64.3691 204.105 65.1627 207.998 65.6268 211.517C65.7916 213.015 65.9712 214.527 66.1809 216.069L66.5103 218.39C66.6301 219.154 66.7948 219.888 66.9445 220.651C67.5584 223.661 68.2323 226.79 69.0708 229.905C67.6183 228.213 66.3905 226.371 65.3573 224.544C64.8482 223.631 64.384 222.733 64.0097 221.789C63.6503 220.816 63.3658 219.858 63.1262 218.899L63.1113 218.914ZM78.3245 229.785C77.3962 227.374 76.5726 224.949 75.794 222.598C75.4196 221.4 75.0154 220.307 74.7009 219.064L73.8025 215.455L73.7426 215.126C73.4281 213.314 72.9939 211.697 72.5147 210.289C72.0955 208.792 71.6313 207.489 71.1521 206.381C70.2238 204.18 69.2505 202.833 68.9211 202.189C69.535 202.937 70.2387 203.566 70.8527 204.285C71.4816 204.989 72.0655 205.737 72.6345 206.501C73.2035 207.25 73.6827 208.118 74.2367 208.852C74.7758 209.616 75.2699 210.394 75.7491 211.218C76.2132 212.026 76.6475 212.88 77.0368 213.733C77.3812 214.527 77.7555 215.38 78.1598 216.309C78.8786 218.001 79.4625 219.768 79.8668 221.595C80.5107 224.694 81.4091 227.554 82.3674 230.579C82.8466 232.076 83.3707 233.603 83.9097 235.146C84.4787 236.628 85.0927 238.066 85.7215 239.563C84.868 238.889 84.0744 238.17 83.3108 237.437C82.5771 236.658 81.9182 235.82 81.2893 234.981C80.0465 233.304 79.0433 231.552 78.2796 229.77L78.3245 229.785ZM94.9154 237.332L93.0886 234.038C92.5196 232.885 91.9806 231.717 91.4415 230.564C90.3933 228.243 89.3901 226.057 88.5216 223.751L88.4318 223.421C87.9077 221.595 87.2938 220.007 86.6499 218.645C86.021 217.252 85.3173 216.189 84.7483 215.111C83.5803 213.045 82.5022 211.817 82.038 211.338C87.9077 215.755 92.7442 221.445 95.3347 228.677C96.4427 231.522 97.6706 234.427 99.0182 237.392C100.381 240.312 101.938 243.022 103.57 245.912C101.713 244.819 100.021 243.561 98.554 242.198C97.1165 240.686 95.8887 239.054 94.9154 237.347V237.332ZM112.24 241.599C110.698 239.503 109.23 237.452 107.868 235.37C106.52 233.169 105.277 230.983 104.094 228.842L103.96 228.542C100.875 221.639 97.1165 218.435 96.1283 217.537C96.9219 217.926 97.7005 218.36 98.4492 218.839C99.2278 219.244 99.9765 219.693 100.71 220.187C101.444 220.681 102.148 221.22 102.822 221.819C103.405 222.343 104.079 222.957 104.813 223.616C107.418 225.997 109.635 229.201 111.431 232.436C112.165 233.828 112.929 235.236 113.737 236.643L114.965 238.769C115.384 239.458 115.819 240.102 116.268 240.776C118.035 243.441 119.936 246.122 121.988 248.817C120.011 248.008 118.185 247.005 116.537 245.837C115.714 245.238 114.935 244.639 114.231 243.95C113.528 243.217 112.869 242.438 112.27 241.644L112.24 241.599ZM43.5856 64.3108L40.486 67.605C39.4678 68.7281 38.5544 69.9409 37.5661 71.1089C36.6078 72.3068 35.6046 73.4747 34.6762 74.7026L31.9959 78.5059C33.4633 73.7293 35.7992 69.6115 38.1351 66.3323L43.0764 60.2679L48.3472 54.6228C48.3472 54.6228 48.6616 54.2784 49.2456 53.7394C49.8296 53.1854 50.6531 52.3768 51.6414 51.2987C52.1355 50.7596 52.6746 50.1607 53.2586 49.4869C53.8276 48.813 54.4415 48.0793 55.1452 47.3456C56.5228 45.8482 58.0202 44.0813 59.6074 42.0449C54.0372 50.8644 48.6467 59.0101 43.5856 64.3108Z" fill="#DCF5FF"/>
<path d="M248.89 124.864C250.147 128.084 251.435 131.378 252.423 134.762L252.483 134.972C251.39 131.632 250.013 128.398 248.68 125.239C247.557 122.888 246.673 119.803 245.67 116.419C246.419 119.893 247.048 123.262 247.856 126.287C248.53 129.327 249.414 132.037 250.192 134.223C250.986 136.259 251.779 138.341 252.408 140.467C253.097 142.578 253.786 144.734 254.31 146.921L254.34 146.576C254.819 138.73 253.561 131.333 251.495 126.856C250.716 124.984 249.713 123.172 248.845 121.361C247.976 119.564 246.943 117.812 245.955 116.09C246.958 119.369 247.841 122.409 248.904 124.864H248.89ZM244.637 125.344C243.978 128.713 243.304 132.022 242.361 135.241C243.394 132.112 244.143 128.922 244.921 125.643C245.386 123.202 245.64 119.983 245.251 116.494C245.91 119.968 246.015 123.412 245.94 126.482C245.73 129.566 245.371 132.291 244.607 134.418C243.948 136.409 243.289 138.386 242.481 140.302C241.717 142.234 240.968 144.121 240.07 145.962C240.534 138.895 241.253 132.216 242.436 127.679C243.005 125.823 243.334 123.966 243.798 122.064C244.263 120.163 244.547 118.246 244.877 116.299C245.236 119.669 245.026 122.813 244.622 125.344H244.637ZM242.151 101.041C244.607 104.141 247.033 107.39 249.234 110.834C249.938 111.867 250.597 113.08 251.166 114.443C251.749 115.805 252.333 117.318 252.843 118.95C253.292 120.582 253.711 122.334 254.07 124.161C254.43 125.987 254.594 127.904 254.774 129.851L254.804 130.195C252.992 126.047 250.971 122.064 248.8 118.261C246.464 114.203 244.128 108.034 241.897 101.386C243.2 104.62 244.727 107.465 246.059 109.651C246.958 111.104 247.961 112.556 248.785 114.083L251.345 118.68L251.255 118.486L248.845 113.784C248.051 112.242 247.108 110.744 246.254 109.247C245.925 108.678 245.58 108.064 245.266 107.42C244.921 106.791 244.547 106.132 244.203 105.443C243.484 104.066 242.87 102.569 242.166 101.026L242.151 101.041ZM241.822 110.34C241.672 112.047 241.597 113.709 241.373 115.401L240.699 120.372L241.537 115.536C241.837 113.889 241.957 112.272 242.166 110.609C242.511 108.109 242.166 104.964 241.492 101.535C243.529 108.244 243.903 114.877 242.96 119.249C242.062 123.352 240.968 127.335 239.681 131.183C239.531 129.446 239.501 127.709 239.426 126.047C239.336 124.385 239.306 122.753 239.336 121.196C239.336 119.639 239.336 118.171 239.426 116.794C239.471 116.105 239.546 115.431 239.606 114.802C239.651 114.173 239.726 113.559 239.815 112.99C240.444 109.217 240.819 105.369 241.073 101.416C241.448 103.048 241.612 104.665 241.777 106.162C241.852 106.911 241.897 107.645 241.912 108.333C241.912 109.037 241.882 109.711 241.822 110.355V110.34ZM236.476 86.7413C237.944 88.089 239.456 89.4366 240.819 90.8891C242.196 92.3415 243.694 93.779 245.011 95.3362C248.306 99.0048 251.54 105.698 253.097 113.32L253.157 113.649C250.731 109.816 248.156 106.177 245.386 102.748C244.008 100.891 242.346 98.5855 240.909 95.8903C239.306 93.2549 237.854 90.2152 236.252 87.1307C238.108 90.0655 239.785 92.7458 241.552 94.6475C242.705 95.9352 243.754 97.2828 244.877 98.6305C246.015 99.9781 247.048 101.371 248.081 102.793L247.961 102.613L246.479 100.442L244.892 98.331C243.813 96.9384 242.825 95.5459 241.687 94.2282C239.95 92.1918 238.288 89.5714 236.476 86.7264V86.7413ZM237.18 95.9951C237.285 97.6721 237.225 99.3941 237.24 101.056C237.24 101.895 237.24 102.718 237.225 103.557L237.09 106.057C237.255 104.44 237.405 102.793 237.435 101.176C237.48 99.5439 237.584 97.8668 237.569 96.2047C237.509 93.7341 237.045 90.5896 235.832 87.3553C237.33 90.4848 238.228 93.7341 238.887 96.6839C239.381 99.6936 239.666 102.359 239.351 104.62C238.917 108.783 238.213 112.855 237.33 116.794C235.997 110.04 235.129 103.557 235.368 98.9C235.533 96.9834 235.488 95.0967 235.533 93.1501C235.593 91.1885 235.488 89.2719 235.398 87.2954C236.536 90.4249 237.045 93.4795 237.195 96.025L237.18 95.9951ZM229.169 73.3998L234.081 76.8587C235.713 78.0566 237.255 79.3443 238.887 80.6321C239.875 81.3957 240.834 82.384 241.777 83.522C242.72 84.66 243.709 85.9328 244.637 87.3553C245.52 88.7927 246.374 90.35 247.197 91.9971C248.036 93.6442 248.665 95.4261 249.324 97.2379L249.444 97.5524C246.464 94.1084 243.319 90.919 240.1 87.9392C236.611 84.7798 232.793 79.554 228.974 73.819C230.023 75.1816 231.086 76.4245 232.164 77.5475C233.257 78.6406 234.2 79.6887 235.204 80.5123C237.899 82.6984 240.369 85.0942 242.945 87.5649L242.795 87.4152C240.325 84.8547 237.929 82.369 235.323 80.078C233.422 78.2662 231.236 76.0202 229.184 73.3998H229.169ZM230.771 82.5188C231.31 85.8429 231.535 89.212 231.775 92.4763C231.655 89.2719 231.595 85.9477 231.191 82.6685C231.041 81.4407 230.846 80.0182 230.352 78.6106C229.888 77.1731 229.274 75.6608 228.555 74.1035C232.164 79.9583 233.976 86.2622 233.976 90.7094C233.916 94.917 233.676 99.0198 233.167 103.033C232.583 101.431 232.164 99.8134 231.685 98.2561C231.206 96.6989 230.801 95.1715 230.487 93.6891C230.127 92.2217 229.798 90.8142 229.603 89.4666C229.409 88.1189 229.289 86.8462 229.199 85.6932C229.079 83.8065 229.004 81.8599 228.81 79.9283L228.091 74.1035C229.454 77.1282 230.487 79.9732 230.786 82.5337L230.771 82.5188ZM220.29 61.1962C222.146 62.0048 223.883 62.9481 225.68 63.8915L228.391 65.3439L231.026 66.9162C232.089 67.56 233.197 68.3686 234.335 69.3269C235.428 70.3152 236.521 71.4682 237.629 72.7409C238.183 73.3848 238.737 74.0436 239.276 74.7474C239.785 75.4661 240.295 76.1999 240.789 76.9785C241.762 78.5208 242.795 80.108 243.589 81.8599L243.739 82.1594C242.061 80.647 240.19 79.2844 238.423 77.9218C236.671 76.5443 234.814 75.2865 232.987 74.0586C229.139 71.3933 224.542 66.8712 220.14 61.6754C221.413 62.8134 222.566 63.9514 223.764 64.9097C224.932 65.883 226.159 66.6766 227.223 67.3654L231.595 70.1804C233.077 71.1238 234.44 72.1869 235.892 73.2351L235.728 73.1003C233.017 70.8542 230.112 68.8627 227.297 66.9162C226.204 66.1675 225.021 65.3439 223.868 64.3706C222.701 63.3973 221.548 62.3192 220.305 61.2112L220.29 61.1962ZM222.835 70.0756C223.584 73.3998 224.318 76.6191 224.767 79.8984C224.572 78.3111 224.437 76.6341 224.138 75.0469L223.27 70.1655C223.06 68.9077 222.566 67.6349 221.982 66.2423C221.383 64.8648 220.679 63.3824 219.706 62.0048C223.913 67.3504 226.534 73.28 226.863 77.7721C227.058 79.8684 227.238 81.9198 227.253 84.0012C227.297 86.0675 227.387 88.074 227.282 90.1254C226.609 88.5981 225.845 87.1307 225.231 85.6483C224.917 84.9146 224.632 84.1659 224.363 83.4322C224.123 82.8033 223.839 82.0995 223.524 81.3059C223 79.8984 222.581 78.5208 222.251 77.2031C221.862 75.9154 221.592 74.6875 221.428 73.5196L221.023 70.6596L220.484 67.8296C220.11 65.9279 219.736 63.9663 219.227 62.0946C220.14 63.4423 220.844 64.8648 221.443 66.2124C222.027 67.575 222.536 68.8478 222.82 70.0906L222.835 70.0756ZM210.123 50.2504C212.009 50.8494 214.001 51.4034 215.902 52.1072C217.804 52.8109 219.736 53.5297 221.682 54.2933C226.234 56.2399 231.909 60.9417 236.057 67.3504L236.252 67.6349C234.26 66.452 232.284 65.314 230.337 64.2209C228.316 63.1727 226.309 62.1695 224.348 61.2112C222.191 60.2229 219.855 58.7405 217.445 56.9287C216.217 56.0453 214.974 55.072 213.761 54.0238C212.533 52.9756 211.231 51.9275 210.003 50.7745C211.35 51.7927 212.728 52.6612 214.031 53.4548C215.318 54.2634 216.576 54.9222 217.774 55.4164C219.406 56.0602 220.949 56.8089 222.521 57.5576C224.093 58.3213 225.74 59.055 227.253 59.9234L227.073 59.8186C225.59 58.8903 223.973 58.0967 222.446 57.2731C220.919 56.4495 219.376 55.6559 217.789 54.9522C216.576 54.3982 215.333 53.6944 214.076 52.8858C212.773 52.1221 211.44 51.2537 210.123 50.2804V50.2504ZM213.492 58.8603C214.091 60.4176 214.585 62.0347 215.049 63.6369C215.513 65.2391 216.022 66.7814 216.382 68.3986C216.097 66.7814 215.663 65.2391 215.274 63.6369C214.869 62.0497 214.465 60.4026 213.956 58.8453C213.582 57.6624 213.027 56.3897 212.324 55.057C211.59 53.7543 210.647 52.4665 209.599 51.1489C210.766 52.3468 211.919 53.5447 212.893 54.8174C213.851 56.1052 214.734 57.3779 215.498 58.6357C216.966 61.2112 217.954 63.7118 218.373 65.8979C218.732 67.9943 219.062 70.0457 219.346 72.0821C219.571 74.1634 219.766 76.1999 219.93 78.2063C216.367 72.6511 213.417 67.1108 212.399 62.4989C211.934 60.6572 211.425 58.8004 210.916 56.9137C210.392 55.027 209.733 53.2152 209.104 51.3136C210.108 52.5863 211.006 53.8591 211.755 55.1169C212.458 56.4196 213.042 57.6774 213.477 58.8603H213.492ZM198.788 40.7421C202.756 41.2962 206.843 42.0149 210.871 43.0481C215.783 44.1861 221.922 48.214 226.848 54.0088L227.058 54.2634C224.932 53.35 222.82 52.4815 220.649 51.7478C218.493 50.9841 216.412 50.2355 214.225 49.6365C209.688 48.229 204.133 45.1594 198.698 41.2812C200.18 42.0598 201.588 42.8235 202.995 43.3925C204.403 43.9615 205.75 44.4257 206.993 44.7701C208.655 45.2193 210.362 45.6685 212.054 46.1626L217.1 47.8397L216.906 47.7648L211.964 45.8781L206.978 44.2759C205.735 43.8567 204.373 43.3925 202.995 42.8085C201.603 42.2395 200.24 41.4609 198.773 40.7571L198.788 40.7421ZM202.98 48.9926L205.002 53.5746L206.754 58.2164L205.241 53.5446C204.672 52.0024 204.073 50.475 203.444 48.9028C202.995 47.7199 202.306 46.522 201.438 45.3241C200.554 44.1412 199.566 42.8534 198.353 41.7304C203.609 45.8332 207.397 50.9841 208.565 55.3714C209.179 57.3629 209.643 59.4593 210.093 61.4807C210.572 63.4722 210.916 65.5236 211.231 67.5301C207.083 62.5588 203.699 57.333 202.172 52.9008C200.989 49.2173 199.506 45.6236 197.859 41.97C199.042 43.0481 199.985 44.3059 200.869 45.4588C201.737 46.6418 202.471 47.7798 202.98 48.9777V48.9926ZM186.494 32.7761C190.567 32.6713 194.685 32.851 198.907 33.1954C203.938 33.6446 210.587 36.7442 216.187 41.8502L216.427 42.0748C214.166 41.4908 211.86 41.0117 209.643 40.5475C207.412 40.0833 205.121 39.7688 202.92 39.4394C200.569 39.0801 197.844 38.4062 195.119 37.2832C192.289 36.28 189.414 34.8575 186.479 33.3451C189.594 34.4981 192.543 35.3815 195.164 35.6062C196.931 35.7259 198.623 36.0254 200.39 36.25L203.04 36.6393C203.923 36.7891 204.792 36.9688 205.675 37.1335L205.466 37.0885C203.759 36.6393 201.992 36.2949 200.255 35.9805C198.518 35.666 196.841 35.3067 195.089 35.112C193.756 34.9323 192.364 34.6329 190.941 34.2136C189.519 33.7943 187.991 33.3751 186.494 32.7911V32.7761ZM191.465 40.6074C192.349 42.0149 193.112 43.5572 193.891 45.0246C194.67 46.492 195.418 47.9445 196.092 49.4718C195.793 48.7231 195.493 47.9445 195.164 47.1958L194.131 44.9647C193.427 43.4823 192.738 41.9101 191.93 40.4576C190.747 38.2565 188.77 35.8907 186.135 33.8992C188.995 35.5463 191.435 37.6426 193.457 39.7239C195.374 41.94 196.901 44.0962 197.679 46.2525C198.413 48.2889 199.162 50.2055 199.776 52.227C200.375 54.2484 200.974 56.195 201.468 58.1865C196.796 53.8591 192.918 49.1124 191.016 44.7551C189.444 41.2512 187.707 37.6725 185.686 34.2136C186.913 35.2168 188.081 36.2201 189.04 37.3132C189.998 38.4212 190.807 39.5293 191.465 40.6074ZM173.452 26.3824C177.48 25.7235 181.658 25.1845 185.895 24.9449C188.486 24.7203 191.45 25.2743 194.64 26.2626C197.754 27.3706 201.093 28.9578 204.133 31.1739L204.403 31.3686C199.701 30.8745 195.044 30.7098 190.507 30.7846C185.656 30.8445 179.561 29.3921 173.467 26.9963C176.626 27.8348 179.741 28.1193 182.346 28.0444C184.098 27.9696 185.895 27.8647 187.677 27.8647L193.083 27.9546H192.873L187.542 27.5952C185.775 27.5204 183.993 27.5353 182.257 27.5204C181.583 27.5204 180.909 27.4904 180.205 27.4305C179.486 27.4006 178.768 27.3407 178.019 27.2508C176.537 27.0861 175.024 26.7417 173.452 26.4123V26.3824ZM179.142 33.7794C180.115 35.1869 181.089 36.5345 181.987 37.942L184.577 42.1796L182.212 37.8223C181.388 36.3548 180.49 34.9773 179.591 33.5398C178.259 31.3386 175.983 29.3621 173.212 27.5802C179.187 30.2605 183.889 34.4981 185.88 38.6308C187.767 42.509 189.399 46.3872 190.717 50.2954C188.201 48.4236 185.82 46.507 183.874 44.3957C181.837 42.4192 180.235 40.1881 179.067 38.1667C177.21 34.7077 175.099 31.3686 172.793 27.9995C174.141 28.8231 175.324 29.7964 176.417 30.7547C176.956 31.2338 177.45 31.728 177.914 32.2221C178.363 32.7462 178.783 33.2703 179.142 33.7943V33.7794ZM159.871 21.6507C163.824 20.303 167.897 19.2249 172.119 18.2816C177.18 17.1586 184.383 18.4163 191.001 21.9651L191.286 22.1298C186.479 22.3844 181.822 22.8935 177.27 23.6721C174.874 24.0165 172.059 24.1812 169.155 23.8368C166.19 23.6422 163.105 22.9983 159.946 22.2496C163.21 22.5491 166.25 22.594 168.885 22.01C170.622 21.6357 172.374 21.3662 174.156 21.0667C175.953 20.7522 177.749 20.5276 179.561 20.348H179.352L176.671 20.5276L173.991 20.8121C172.209 21.0367 170.487 21.1865 168.735 21.486C166.055 21.9352 163.06 21.8753 159.871 21.6207V21.6507ZM166.235 28.5386C167.358 29.7964 168.406 31.1889 169.439 32.4916L170.966 34.4682L172.404 36.5196C171.535 35.097 170.622 33.6895 169.649 32.3569C168.675 30.9943 167.702 29.5867 166.654 28.2391C165.082 26.2775 162.701 24.316 159.736 22.9833C162.836 23.8817 165.636 25.3941 168.002 26.9963C170.308 28.7482 172.209 30.56 173.377 32.6114C175.623 36.3249 177.57 40.1432 179.262 43.9315C173.856 40.9667 169.229 37.1634 166.564 33.1355C164.393 29.8712 161.997 26.577 159.362 23.4475C162.192 24.7802 164.543 26.6219 166.22 28.5386H166.235ZM145.975 18.5361C147.847 17.6227 149.764 16.7093 151.725 15.8109C153.687 14.9275 155.678 14.1638 157.745 13.3552C158.987 12.8611 160.365 12.5317 161.832 12.352C163.315 12.1723 164.902 12.0825 166.564 12.1573C168.211 12.2771 169.933 12.5167 171.67 12.8761C173.422 13.2205 175.159 13.8344 176.896 14.4783L177.195 14.5981C172.419 15.5564 167.807 16.8142 163.375 18.2666C158.628 19.8538 152.444 20.0335 146.08 19.195C149.299 19.195 152.369 18.626 154.885 17.7575C158.269 16.4698 161.728 15.4516 165.336 14.4333L165.127 14.4783C161.533 15.2868 158.074 16.1254 154.675 17.2184C152.085 17.9522 149.075 18.5062 145.945 18.5361H145.975ZM152.953 24.9449C155.424 27.3107 157.685 29.8862 159.841 32.3718C157.819 29.7664 155.678 27.0562 153.342 24.5556C151.62 22.594 149.03 21.0667 145.99 19.9137C152.294 21.1116 157.685 24.331 160.425 28.1343C163 31.7429 165.306 35.3815 167.313 39.11C165.89 38.5709 164.558 37.8672 163.255 37.2083C161.952 36.5495 160.709 35.8008 159.571 34.9773C158.418 34.1837 157.325 33.3751 156.352 32.4767C155.379 31.5782 154.51 30.6349 153.747 29.6915C152.504 28.1493 151.231 26.5321 149.883 25.0197C148.536 23.5224 147.128 21.9951 145.676 20.4677C148.581 21.6207 151.126 23.0432 152.953 24.9299V24.9449ZM245.625 142.473C246.344 138.251 246.868 133.953 247.108 129.626C247.242 130.465 247.392 131.303 247.482 132.127C247.557 132.95 247.602 133.759 247.632 134.552C247.677 136.14 247.752 137.667 247.557 139.074C247.347 140.901 247.197 142.728 246.958 144.54L246.104 149.96L246.059 150.17C246.104 150.005 246.134 149.826 246.164 149.661L247.153 144.375C247.422 142.683 247.617 140.976 247.856 139.254C248.081 137.877 248.051 136.349 248.006 134.732C247.961 133.115 247.811 131.393 247.467 129.671C249.129 136.334 249.399 143.327 248.231 148.283C247.796 150.619 247.093 152.895 246.539 155.171C245.925 157.447 245.146 159.678 244.457 161.894V161.909C244.502 154.692 244.727 147.639 245.625 142.488V142.473Z" fill="#FFE8DC"/>
<path d="M244.893 116.284C244.563 118.23 244.279 120.147 243.815 122.048C243.366 123.95 243.021 125.822 242.452 127.664C241.284 132.126 240.58 138.684 240.116 145.632C240.176 145.228 240.371 144.12 240.775 141.679C241.134 139.792 241.688 137.501 242.347 135.24L242.407 135.046C243.336 131.871 243.964 128.637 244.623 125.328C245.028 122.797 245.222 119.653 244.878 116.284H244.893ZM241.823 110.339C241.673 112.016 241.599 113.648 241.389 115.295L240.73 120.177L240.7 120.386C240.191 122.692 239.966 125.013 239.862 126.9C239.682 128.802 239.667 130.269 239.667 130.868C239.517 129.161 239.517 127.454 239.427 125.822C239.338 124.175 239.323 122.587 239.353 121.045C239.338 119.518 239.353 118.08 239.442 116.718C239.562 115.355 239.667 114.097 239.832 112.974C240.461 109.201 240.835 105.353 241.09 101.4C241.464 103.032 241.629 104.649 241.793 106.146C241.868 106.895 241.913 107.629 241.928 108.317C241.928 109.021 241.898 109.695 241.838 110.339H241.823ZM237.181 95.9941C237.286 97.6413 237.226 99.3333 237.241 100.965V103.406L237.092 105.862V106.071C236.957 107.239 236.927 108.392 236.942 109.485C236.912 110.594 236.912 111.642 236.957 112.585C237.047 114.457 237.226 115.894 237.256 116.478C235.954 109.845 235.1 103.481 235.355 98.8841C235.519 96.9674 235.474 95.0808 235.519 93.1342C235.579 91.1726 235.474 89.256 235.385 87.2795C236.523 90.409 237.032 93.4636 237.181 96.0091V95.9941ZM230.773 82.5178C231.297 85.7821 231.521 89.0763 231.761 92.2807V92.4903C231.731 94.8561 232.015 97.1172 232.345 98.929C232.584 100.771 232.914 102.163 233.049 102.732C232.48 101.16 232.09 99.5579 231.596 98.0306C231.132 96.5033 230.743 94.9909 230.428 93.5385C230.069 92.101 229.754 90.7084 229.56 89.3907C229.365 88.0581 229.245 86.8003 229.17 85.6773C229.051 83.7906 228.976 81.844 228.781 79.9124L228.062 74.0876C229.425 77.1123 230.458 79.9573 230.758 82.5178H230.773ZM222.837 70.0747C223.57 73.3389 224.304 76.4834 224.738 79.7028L224.768 79.9124C225.068 82.2183 225.517 84.4494 226.011 86.2163C226.266 87.0998 226.52 87.8634 226.73 88.4773C226.924 89.1062 227.074 89.5704 227.179 89.84C226.535 88.3276 225.756 86.9051 225.172 85.4377C224.873 84.704 224.588 83.9852 224.319 83.2665C224.034 82.5627 223.75 81.859 223.495 81.1702C222.986 79.7926 222.582 78.43 222.253 77.1423C221.878 75.8845 221.609 74.6566 221.459 73.5186L221.055 70.6586L220.516 67.8286C220.141 65.927 219.767 63.9654 219.258 62.0937C220.171 63.4413 220.875 64.8638 221.474 66.2115C222.058 67.5741 222.567 68.8468 222.852 70.0896L222.837 70.0747ZM213.493 58.8594C214.077 60.3867 214.556 61.9739 215.02 63.5461C215.47 65.1333 215.994 66.6157 216.338 68.2179L216.383 68.4276C217.326 72.9945 219.243 76.9925 219.797 77.9808C216.323 72.5004 213.433 67.065 212.43 62.513C211.966 60.6712 211.457 58.8144 210.947 56.9278C210.423 55.0411 209.765 53.2293 209.136 51.3276C210.139 52.6004 211.037 53.8731 211.786 55.1309C212.49 56.4336 213.074 57.6914 213.508 58.8743L213.493 58.8594ZM202.981 48.9917L204.973 53.4838L206.695 58.0358L206.755 58.2305C207.459 60.4466 208.312 62.5429 209.196 64.1002C210.049 65.6724 210.738 66.8703 211.067 67.3195C206.994 62.4231 203.7 57.2722 202.188 52.9148C201.005 49.2313 199.523 45.6376 197.875 41.984C199.058 43.0621 200.002 44.3199 200.885 45.4729C201.754 46.6558 202.487 47.7938 202.996 48.9917H202.981ZM191.467 40.6064C192.335 41.999 193.084 43.4963 193.847 44.9338C194.611 46.3713 195.36 47.7938 196.004 49.2912L196.079 49.4858C196.947 51.687 198.1 53.5437 199.058 55.071C200.032 56.5684 200.93 57.5716 201.259 57.9909C196.678 53.7234 192.874 49.0516 191.017 44.7541C189.445 41.2503 187.708 37.6716 185.687 34.2127C186.915 35.2159 188.083 36.2191 189.041 37.3122C189.999 38.4203 190.808 39.5283 191.467 40.6064ZM179.143 33.7784C180.102 35.156 181.045 36.4737 181.943 37.8513L184.489 42.014L184.594 42.1936C185.672 44.3049 186.93 46.1317 188.083 47.4494C189.191 48.827 190.119 49.7703 190.523 50.1297C188.053 48.273 185.732 46.3713 183.8 44.29C181.809 42.3434 180.236 40.1422 179.083 38.1358C177.227 34.6768 175.115 31.3377 172.809 27.9686C174.157 28.7922 175.34 29.7655 176.433 30.7238C176.972 31.2029 177.466 31.6971 177.93 32.1912C178.38 32.7153 178.799 33.2394 179.158 33.7634L179.143 33.7784ZM166.236 28.5376C167.344 29.7655 168.362 31.143 169.38 32.4158L170.878 34.3474L172.3 36.3539L172.42 36.5336C173.049 37.5518 173.723 38.4652 174.412 39.2588C175.085 40.0823 175.744 40.831 176.358 41.445C177.586 42.6878 178.649 43.4365 179.053 43.7958C173.753 40.861 169.216 37.1026 166.58 33.1345C164.409 29.8703 162.013 26.5761 159.378 23.4466C162.208 24.7792 164.559 26.621 166.236 28.5376ZM152.954 24.9439C155.365 27.2649 157.596 29.7804 159.722 32.2212L159.857 32.3859C161.28 34.3624 162.867 35.8747 164.215 36.9229C165.532 38.0609 166.625 38.7347 167.089 39.0042C165.697 38.4652 164.394 37.7614 163.106 37.1176C161.819 36.4587 160.621 35.71 159.498 34.9014C158.36 34.1378 157.297 33.3292 156.338 32.4308C155.38 31.5324 154.527 30.604 153.778 29.6906C152.535 28.1483 151.262 26.5311 149.915 25.0188C148.567 23.5214 147.159 21.9941 145.707 20.4668C148.612 21.6198 151.157 23.0423 152.984 24.929L152.954 24.9439ZM245.627 142.473C246.345 138.25 246.869 133.952 247.109 129.625C247.244 130.464 247.393 131.302 247.483 132.126C247.558 132.949 247.603 133.758 247.633 134.551C247.678 136.139 247.753 137.666 247.558 139.073C247.349 140.9 247.199 142.727 246.959 144.539L246.106 149.959C246.106 149.959 246.016 150.364 245.911 150.843C245.806 151.397 245.656 152.22 245.492 153.254C245.237 155.335 244.728 158.27 244.444 161.878C244.489 154.661 244.713 147.608 245.612 142.458L245.627 142.473Z" fill="#FFE8DC"/>
<path d="M248.89 124.864C250.147 128.084 251.435 131.378 252.423 134.762L252.498 134.972C253.382 137.382 253.816 139.943 254.07 142.069C254.37 144.195 254.34 145.872 254.34 146.561C254.819 138.715 253.561 131.318 251.495 126.841C250.716 124.969 249.713 123.157 248.845 121.346C247.976 119.549 246.943 117.797 245.955 116.075C246.958 119.354 247.841 122.394 248.904 124.849L248.89 124.864ZM242.151 101.041C244.607 104.141 247.033 107.39 249.234 110.834C249.938 111.867 250.597 113.08 251.166 114.443C251.749 115.805 252.333 117.318 252.843 118.95C253.292 120.582 253.711 122.334 254.07 124.161C254.43 125.987 254.594 127.904 254.774 129.851C254.669 129.192 254.415 127.53 253.921 125.463C253.352 123.412 252.498 120.941 251.36 118.68L251.255 118.486L248.845 113.784C248.051 112.242 247.108 110.744 246.254 109.247C245.925 108.678 245.58 108.064 245.266 107.42C244.921 106.791 244.547 106.132 244.203 105.443C243.484 104.066 242.87 102.569 242.166 101.026L242.151 101.041ZM236.476 86.7413C237.944 88.089 239.456 89.4366 240.819 90.8891C242.196 92.3415 243.694 93.779 245.011 95.3362C248.306 99.0048 251.54 105.698 253.097 113.32C252.962 112.676 252.453 111.074 251.615 109.127C251.21 108.154 250.716 107.076 250.162 105.998C249.548 104.934 248.86 103.841 248.111 102.808L247.976 102.628L246.494 100.457L244.907 98.346C243.828 96.9534 242.84 95.5609 241.702 94.2432C239.965 92.2067 238.303 89.5863 236.491 86.7413H236.476ZM229.169 73.3998L234.081 76.8587C235.713 78.0566 237.255 79.3443 238.887 80.6321C239.875 81.3957 240.834 82.384 241.777 83.522C242.72 84.66 243.709 85.9328 244.637 87.3553C245.52 88.7927 246.374 90.35 247.197 91.9971C248.036 93.6442 248.665 95.4261 249.324 97.2379C249.054 96.624 248.365 95.1266 247.332 93.2849C246.209 91.488 244.712 89.3767 242.945 87.5649L242.78 87.4002C240.31 84.8397 237.914 82.354 235.308 80.0631C233.407 78.2513 231.221 76.0052 229.169 73.3848V73.3998ZM220.29 61.1962C222.146 62.0048 223.883 62.9481 225.68 63.8915L228.391 65.3439L231.026 66.9162C232.089 67.56 233.197 68.3686 234.335 69.3269C235.428 70.3152 236.521 71.4682 237.629 72.7409C238.183 73.3848 238.737 74.0436 239.276 74.7474C239.785 75.4661 240.295 76.1999 240.789 76.9785C241.762 78.5208 242.795 80.108 243.589 81.8599C243.424 81.5754 243.14 81.0813 242.72 80.4374C242.286 79.8235 241.717 79.0598 241.058 78.2513C239.741 76.6191 238.019 74.7175 235.907 73.2351L235.728 73.1003C233.017 70.8542 230.112 68.8627 227.297 66.9162C226.204 66.1675 225.021 65.3439 223.868 64.3706C222.701 63.3973 221.548 62.3192 220.305 61.2112L220.29 61.1962ZM210.123 50.2504C212.009 50.8494 214.001 51.4034 215.902 52.1072C217.804 52.8109 219.736 53.5297 221.682 54.2933C226.234 56.2399 231.909 60.9417 236.057 67.3504C235.234 66.3472 231.864 62.2743 227.267 59.8935L227.073 59.7887C225.59 58.8603 223.973 58.0667 222.446 57.2432C220.919 56.4196 219.376 55.626 217.789 54.9222C216.576 54.3682 215.333 53.6644 214.076 52.8559C212.773 52.0922 211.44 51.2237 210.123 50.2504ZM198.788 40.7421C202.756 41.2962 206.843 42.0149 210.871 43.0481C215.783 44.1861 221.922 48.214 226.848 54.0088C226.369 53.5596 225.231 52.3917 223.509 51.2088C221.757 50.0408 219.616 48.6632 217.145 47.8397L216.921 47.7648L211.979 45.8781L206.993 44.2759C205.75 43.8567 204.388 43.3925 203.01 42.8085C201.618 42.2395 200.255 41.4609 198.788 40.7571V40.7421ZM186.494 32.7761C190.567 32.6713 194.685 32.851 198.907 33.1954C203.938 33.6446 210.587 36.7442 216.187 41.8502C215.678 41.4459 214.315 40.5475 212.473 39.5592C210.662 38.556 208.236 37.6126 205.69 37.1335L205.466 37.0885C203.759 36.6393 201.992 36.2949 200.255 35.9805C198.518 35.666 196.841 35.3067 195.089 35.112C193.756 34.9323 192.364 34.6329 190.941 34.2136C189.519 33.7943 187.991 33.3751 186.494 32.7911V32.7761ZM173.452 26.3824C177.48 25.7235 181.658 25.1845 185.895 24.9449C188.486 24.7203 191.45 25.2743 194.64 26.2626C197.754 27.3706 201.093 28.9578 204.133 31.1739C203.564 30.8595 202.142 30.0809 200.195 29.3621C198.204 28.7033 195.733 28.0295 193.097 27.9396H192.858L187.527 27.5952C185.76 27.5204 183.979 27.5353 182.242 27.5204C181.568 27.5204 180.894 27.4904 180.19 27.4305C179.471 27.4006 178.753 27.3407 178.004 27.2508C176.522 27.0861 175.009 26.7417 173.437 26.4123L173.452 26.3824ZM159.871 21.6507C163.824 20.303 167.897 19.2249 172.119 18.2816C177.18 17.1586 184.383 18.4163 191.001 21.9651C190.417 21.6956 188.875 21.1715 186.838 20.7373C185.82 20.5276 184.682 20.333 183.454 20.2282C182.212 20.1683 180.909 20.1832 179.591 20.333L179.352 20.3629L176.671 20.5276L173.991 20.8121C172.209 21.0367 170.487 21.1865 168.735 21.486C166.055 21.9352 163.06 21.8753 159.871 21.6207V21.6507ZM145.975 18.5361C147.847 17.6227 149.764 16.7093 151.725 15.8109C153.687 14.9275 155.678 14.1638 157.745 13.3552C158.987 12.8611 160.365 12.5317 161.832 12.352C163.315 12.1723 164.902 12.0825 166.564 12.1573C168.211 12.2771 169.933 12.5167 171.67 12.8761C173.422 13.2205 175.159 13.8344 176.896 14.4783C176.267 14.3136 174.695 13.9542 172.628 13.7745C170.532 13.6697 167.957 13.7595 165.366 14.4184L165.127 14.4783C161.533 15.2868 158.074 16.1254 154.675 17.2184C152.085 17.9522 149.075 18.5062 145.945 18.5361H145.975Z" fill="#FFE8DC"/>
<defs>
<linearGradient id="paint0_linear_11343_1904" x1="92.3259" y1="26.4161" x2="246.717" y2="165.947" gradientUnits="userSpaceOnUse">
<stop stop-color="#F2F2F2"/>
<stop offset="0.498174" stop-color="#9E9E9E"/>
<stop offset="1" stop-color="#F2F2F2"/>
</linearGradient>
</defs>
</svg>
