<svg width="27" height="20" viewBox="0 0 27 20" fill="none" xmlns="http://www.w3.org/2000/svg">
<path d="M26.0355 6.00023C26.291 6.00023 26.5369 5.89523 26.7177 5.70773C26.8985 5.52023 26.9998 5.26523 26.9998 5.00024V1.00024C26.9998 0.735245 26.8985 0.480243 26.7177 0.292755C26.5369 0.105254 26.291 0.000255737 26.0355 0.000255737H22.1784C21.6456 0.000255737 21.2141 0.447744 21.2141 1.00026C21.2141 1.55277 21.6456 2.00026 22.1784 2.00026H23.7116L22.458 3.29024L15.4284 10.5901L12.256 7.29024C12.0752 7.10149 11.8281 6.99399 11.5714 6.99399C11.3146 6.99399 11.0675 7.10149 10.8867 7.29024L1.92857 16.5901V1C1.92857 0.447488 1.49707 0 0.964286 0C0.431506 0 0 0.447488 0 1V18C0 18.53 0.203706 19.0388 0.565303 19.4138C0.926899 19.7888 1.41748 20 1.92857 20H26.0357C26.5685 20 27 19.5525 27 19C27 18.4475 26.5685 18 26.0357 18H24.1071V4.40992L25.0714 3.40992V4.99994C25.0714 5.26493 25.1727 5.51994 25.3535 5.70742C25.5343 5.89492 25.7802 5.99992 26.0357 5.99992L26.0355 6.00023ZM22.1784 18.0002H3.28792L11.5712 9.41015L14.7436 12.71C14.9244 12.8987 15.1715 13.0062 15.4283 13.0062C15.6851 13.0062 15.9321 12.8987 16.113 12.71L22.1782 6.40983L22.1784 18.0002Z" fill="white"/>
</svg>
