<svg width="81" height="51" viewBox="0 0 81 51" fill="none" xmlns="http://www.w3.org/2000/svg">
<path d="M30.7461 10.1093L30.3848 11.3258C30.4924 10.8964 30.6133 10.4897 30.7461 10.1093Z" fill="#0788BE"/>
<path d="M77.5571 37.1735C76.8802 36.5061 75.9982 36.0832 75.0517 35.9724C74.1052 35.8615 73.1486 36.069 72.3344 36.5617C69.8437 38.0238 66.9301 38.6073 64.0648 38.2179C61.1994 37.8286 58.5499 36.4891 56.5446 34.4161C54.5393 32.3431 53.2956 29.6578 53.0146 26.7945C52.7335 23.9311 53.4316 21.0572 54.9958 18.6375L45.248 31.4757C46.1667 34.6051 47.7932 37.4838 50.0031 39.8911C52.213 42.2985 54.9475 44.1706 57.9972 45.364C61.0468 46.5575 64.3306 47.0405 67.597 46.7762C70.8633 46.5119 74.0255 45.5072 76.8411 43.8391C77.3919 43.508 77.8594 43.0562 78.2082 42.5183C78.557 41.9803 78.7778 41.3702 78.8539 40.7346C78.9301 40.0989 78.8594 39.4543 78.6474 38.8499C78.4354 38.2455 78.0876 37.6971 77.6305 37.2465L77.5571 37.1735ZM47.9558 13.725L49.4886 11.6979C48.9414 12.3456 48.4297 13.0223 47.9558 13.725Z" fill="#F36B21"/>
<path d="M77.664 13.7433L77.5915 13.8073C76.923 14.4755 76.0521 14.8989 75.1174 15.0099C74.1827 15.1209 73.2381 14.9132 72.434 14.4198C69.8919 12.9205 66.9119 12.3596 64.0047 12.8333C61.0975 13.307 58.4442 14.7858 56.4994 17.0162C56.0661 17.508 55.672 18.0338 55.3211 18.5886L45.6498 31.4514L38.8427 40.5934C36.8785 42.5796 34.5445 44.1545 31.9747 45.2277C29.4049 46.3008 26.6502 46.851 23.8689 46.8465H23.5516C20.3037 46.7972 17.1105 45.9952 14.219 44.5025C11.3274 43.0098 8.81496 40.8664 6.87587 38.2379C4.93679 35.6095 3.62301 32.5665 3.03611 29.3442C2.44922 26.1219 2.60494 22.8066 3.49124 19.6547C4.37753 16.5028 5.97065 13.5987 8.14742 11.1669C10.3242 8.73513 13.0263 6.84086 16.0448 5.63054C19.0633 4.42023 22.3174 3.92629 25.5554 4.18693C28.7934 4.44757 31.9286 5.4558 34.7185 7.13366C35.2632 7.46542 35.7257 7.918 36.071 8.45702C36.4163 8.99605 36.6353 9.60734 36.7113 10.2445C36.7873 10.8816 36.7184 11.5279 36.5097 12.1341C36.3011 12.7404 35.9582 13.2907 35.5071 13.7433L35.4346 13.8073C34.7661 14.4755 33.8952 14.8989 32.9605 15.0099C32.0258 15.1209 31.0812 14.9132 30.2771 14.4198C28.247 13.2249 25.9278 12.6222 23.5779 12.6789C21.2281 12.7355 18.94 13.4494 16.9689 14.7407C14.9977 16.0321 13.4209 17.8503 12.4142 19.9926C11.4076 22.135 11.0106 24.5172 11.2677 26.8737C11.5247 29.2302 12.4256 31.4684 13.87 33.3387C15.3143 35.209 17.2454 36.638 19.4478 37.4663C21.6501 38.2945 24.0373 38.4896 26.3432 38.0296C28.649 37.5697 30.7829 36.4728 32.5069 34.8613L32.6791 34.6236L48.3237 13.6793L49.8374 11.6498C51.8256 9.28626 54.3005 7.38799 57.0899 6.08707C59.8794 4.78614 62.9163 4.11379 65.9895 4.1168H66.0892C69.8793 4.12831 73.5961 5.17053 76.8482 7.13366C77.3934 7.46427 77.857 7.91557 78.2038 8.45343C78.5506 8.99129 78.7717 9.60164 78.8503 10.2383C78.9289 10.875 78.8629 11.5214 78.6574 12.1286C78.4519 12.7358 78.1122 13.288 77.664 13.7433Z" fill="#0788BE"/>
</svg>
