<svg width="26" height="26" viewBox="0 0 26 26" fill="none" xmlns="http://www.w3.org/2000/svg">
<path d="M21.4387 25.1648H4.5293C2.02913 25.1648 0 23.1357 0 20.6355V10.4416C0 8.96802 0.724689 7.57904 1.9325 6.73357L10.3872 0.815275C11.9453 -0.271758 14.0348 -0.271758 15.5808 0.815275L24.0355 6.73357C25.2433 7.57904 25.968 8.96802 25.968 10.4416V20.6355C25.968 23.1357 23.9389 25.1648 21.4387 25.1648ZM12.984 1.80568C12.4405 1.80568 11.897 1.97478 11.4259 2.30089L2.97122 8.21918C2.24654 8.72646 1.81172 9.55985 1.81172 10.4416V20.6355C1.81172 22.1332 3.03161 23.3531 4.5293 23.3531H21.4387C22.9364 23.3531 24.1563 22.1332 24.1563 20.6355V10.4416C24.1563 9.55985 23.7215 8.72646 22.9968 8.21918L14.5421 2.30089C14.071 1.97478 13.5275 1.81776 12.984 1.81776V1.80568Z" fill="white"/>
<path d="M17.8145 25.1649H8.15195C7.65675 25.1649 7.24609 24.7542 7.24609 24.259V18.22C7.24609 15.0555 9.81874 12.4828 12.9832 12.4828C16.1477 12.4828 18.7203 15.0555 18.7203 18.22V24.259C18.7203 24.7542 18.3097 25.1649 17.8145 25.1649ZM9.05782 23.3532H16.9086V18.22C16.9086 16.058 15.1452 14.2946 12.9832 14.2946C10.8212 14.2946 9.05782 16.058 9.05782 18.22V23.3532Z" fill="white"/>
</svg>
