<svg width="26" height="26" viewBox="0 0 26 26" fill="none" xmlns="http://www.w3.org/2000/svg">
<path d="M12.0127 0C15.2294 0 18.253 1.24049 20.499 3.52832C22.7845 5.81452 24.0254 8.80022 24.0254 12.0156C24.0254 14.8985 23.0272 17.6232 21.1748 19.7754L26 24.6025L24.6025 26L19.7783 21.1738C17.6253 23.0307 14.8979 24.0312 12.0127 24.0312C8.7962 24.0312 5.77332 22.7915 3.52734 20.5039C1.24161 18.2555 0 15.2312 0 12.0156C3.44226e-05 8.79823 1.24013 5.77487 3.52734 3.52832C5.81303 1.27992 8.79793 5.86276e-05 12.0127 0ZM12.0127 2.0166C9.33952 2.01666 6.82085 3.06272 4.9209 4.96289C3.02269 6.86156 1.97559 9.38098 1.97559 12.0566C1.97561 14.7305 3.02115 17.25 4.9209 19.1504C6.81906 21.049 9.33777 22.0966 12.0127 22.0967C14.6858 22.0967 17.2045 21.0504 19.1045 19.1504C21.0027 17.2517 22.0508 14.7323 22.0508 12.0566C22.0508 9.38105 21.0048 6.82232 19.1445 4.92383C17.2448 3.06299 14.7253 2.0166 12.0127 2.0166Z" fill="white" style="mix-blend-mode:difference"/>
</svg>
