<svg width="31" height="23" viewBox="0 0 31 23" fill="none" xmlns="http://www.w3.org/2000/svg">
<path d="M1.5122 0C0.677048 0 0 0.677006 0 1.5122C0 2.34738 0.677048 3.02439 1.5122 3.02439H29.4878C30.323 3.02439 31 2.34738 31 1.5122C31 0.677006 30.323 0 29.4878 0H1.5122ZM1.5122 9.82927C0.677048 9.82927 0 10.5063 0 11.3415C0 12.1767 0.677048 12.8537 1.5122 12.8537H29.4878C30.323 12.8537 31 12.1767 31 11.3415C31 10.5063 30.323 9.82927 29.4878 9.82927H1.5122ZM1.5122 19.6585C0.677048 19.6585 0 20.3355 0 21.1707C0 22.0059 0.677048 22.6829 1.5122 22.6829H29.4878C30.323 22.6829 31 22.0059 31 21.1707C31 20.3355 30.323 19.6585 29.4878 19.6585H1.5122Z" fill="white"/>
</svg>
